<?xml version="1.0" standalone="no"?>
  <!DOCTYPE svg PUBLIC "-//W3C//DTD SVG 1.1//EN" "http://www.w3.org/Graphics/SVG/1.1/DTD/svg11.dtd" >
  <svg>
  <metadata>
  Created by font-carrier
  </metadata>
  <defs>
  <font id="AlexandraZeferinoTwo" horiz-adv-x="1390" vert-adv-y="1390" >
    <font-face
      
      font-family="Alexandra Zeferino Two"
      
      font-weight="400"
      
      font-stretch="normal"
      
      units-per-em="1000"
      
      ascent="697"
      
      descent="-531"
      
    />
      <missing-glyph />

      

      
      <glyph glyph-name="uni22" unicode="&#x22;" d="M426 460Q426 456 423 453Q398 415 372 381.50Q346 348 326 322Q304 293 285.50 268Q267 243 252 220Q250 217 246 217Q241 217 241 221Q241 223 243 225Q269 268 290 303.50Q311 339 327 365Q344 391 360 416.50Q376 442 392 463Q397 471 409 471Q410 471 418 469Q426 466 426 460M353 465Q353 461 350 458Q330 428 309.50 401Q289 374 267 346Q245 318 222.50 288Q200 258 176 223Q174 220 171 220Q165 220 165 226Q165 225 167 231Q192 267 212 298.50Q232 330 249 359.50Q266 389 283 416Q300 443 319 470Q326 479 335 479Q340 479 346 476Q353 472 353 465Z"  horiz-adv-x="327" vert-adv-y="1000"  />

      
      <glyph glyph-name="uni23" unicode="&#x23;" d="M397 388Q397 382 393 377Q392 375 386 366.50Q380 358 370.50 344Q361 330 349.50 313Q338 296 326 278Q331 279 337 279Q343 279 348 279Q354 279 360 279Q366 279 371 280Q375 280 375 277Q375 276 373 274Q367 269 361.50 264.50Q356 260 351 255Q342 246 331 246Q324 246 317.50 245Q311 244 304 244Q296 230 288.50 219.50Q281 209 275 199Q267 185 258 170.50Q249 156 240 141L259 141Q279 141 289 134Q294 131 294 126Q294 121 289 114Q284 107 281 100Q278 95 273 95Q273 95 267 97Q253 104 218 104Q200 72 183.50 41.50Q167 11 155-13Q154-20 147-20Q145-20 143-18Q139-15 139-11Q139-4 143 0Q159 25 174.50 50.50Q190 76 207 104Q193 104 177.50 103Q162 102 145 100Q124 64 108.50 34.50Q93 5 82-20Q77-32 71-32Q72-32 66-30Q61-25 61-20Q61-16 64-11Q80 15 96 40.50Q112 66 132 98L96 92L95 92Q89 92 89 96Q89 98 91 100Q96 103 100 109Q104 115 106 120Q112 128 129 131Q135 132 141.50 133Q148 134 155 135Q162 146 170 158.50Q178 171 186 185Q193 196 201.50 209.50Q210 223 219 238Q209 237 199.50 235.50Q190 234 180 233L178 233Q170 233 175 241Q179 246 183 254Q187 262 191 267Q195 273 205 273Q213 273 222 273.50Q231 274 241 274Q255 296 267 316.50Q279 337 290 354Q297 366 305 367Q306 367 305.50 367.50Q305 368 306 368Q311 368 311 363Q311 359 309 357Q295 337 280.50 316.50Q266 296 252 274Q267 275 282.50 275.50Q298 276 314 277Q337 312 356 342Q375 372 381 382Q383 386 386.50 389Q390 392 393 392Q394 392 394 391.50Q394 391 395 391Q397 391 397 388M293 245Q261 243 230 239Q221 224 211.50 209Q202 194 192 178Q185 167 179 157Q173 147 167 137Q182 139 197.50 139.50Q213 140 229 141Q238 155 247 170Q256 185 266 201Q271 209 278 220.50Q285 232 293 245Z"  horiz-adv-x="329" vert-adv-y="1000"  />

      
      <glyph glyph-name="uni24" unicode="&#x24;" d="M432 501Q432 497 431 496Q417 473 403.50 451Q390 429 377 408Q384 394 386 375L386 369Q386 361 383.50 357.50Q381 354 376 346Q372 342 370 336Q368 333 366 333Q361 333 361 339Q361 356 355 371Q335 339 317 309Q299 279 282 250Q293 247 303 243Q313 239 324 234Q374 211 374 164Q374 152 371 137Q359 80 293 31Q210-34 135-34L123-34Q103-74 87.50-113.50Q72-153 58-193Q56-198 54-198Q51-198 49-193Q48-192 48-184L48-177Q48-175 50-169Q60-139 73.50-106.50Q87-74 110-32Q97-30 84.50-26Q72-22 60-15Q46-7 40.50 3.50Q35 14 35 33Q35 40 34.50 48.50Q34 57 33 65L33 66Q33 71 37 71Q40 71 40 67Q45 40 63 25Q90 3 125-5Q149 40 183 99Q217 158 256 225Q239 230 222.50 234.50Q206 239 191 245Q164 255 164 280Q164 292 168 300Q179 331 200.50 362.50Q222 394 248 414Q282 442 319 442Q352 442 370 419L407 482Q412 490 416 494.50Q420 499 424 502Q426 504 429 504Q432 504 432 501M348 383Q340 397 324 408Q309 417 291 417Q267 417 245 400Q227 386 215 366Q203 346 200 329Q199 326 199 318Q199 304 205 293.50Q211 283 221 276Q232 268 244 263.50Q256 259 269 254L272 253Q291 285 309.50 317.50Q328 350 348 383M329 143Q329 169 316 188.50Q303 208 274 219L265 222Q233 168 204.50 117Q176 66 147 12Q145 7 142 2.50Q139-2 137-7Q147-9 151-9L166-9Q195-9 222.50-0.50Q250 8 272 26Q296 46 309 70Q322 94 327 122Q328 127 328.50 132.50Q329 138 329 143Z"  horiz-adv-x="362" vert-adv-y="1000"  />

      
      <glyph glyph-name="uni25" unicode="&#x25;" d="M666 200Q666 198 659 197Q649 195 630.50 193.50Q612 192 595 190Q586 188 586 181Q586 176 587 175Q588 172 588 161Q588 140 577 109Q554 50 514 16Q495 0 477-7.50Q459-15 444-15Q424-15 411.50-2.50Q399 10 399 33Q399 47 405 67Q415 94 431.50 119Q448 144 468 164Q422 135 371.50 102Q321 69 269.50 33Q218-3 167.50-40.50Q117-78 71-116Q67-120 62-120L61-120Q58-120 58-117Q58-114 59-113Q61-107 61-106Q61-102 60-101L60-98Q60-92 67-85Q124-32 181 22.50Q238 77 290.50 130.50Q343 184 388.50 235.50Q434 287 469 335Q486 358 498.50 379Q511 400 518 419Q521 426 521 434Q521 453 503 464Q495 469 484.50 471Q474 473 462 473Q447 473 431 470Q406 466 383 459.50Q360 453 335 449Q333 448 330.50 448.50Q328 449 326 449Q313 449 308 454Q293 446 281.50 434Q270 422 263 413Q246 388 233 358.50Q220 329 217 302L217 294Q217 262 241 262Q252 262 267 271Q285 283 300 299.50Q315 316 325.50 335.50Q336 355 341.50 376Q347 397 347 416L347 418Q347 426 344.50 431.50Q342 437 339 440Q338 441 338 443Q338 447 341 447Q342 447 342 446.50Q342 446 343 446Q346 444 353.50 442Q361 440 365 439Q370 438 375 428Q379 419 379 409Q379 407 378.50 403Q378 399 377 394Q372 368 359 345.50Q346 323 327 303Q304 279 278.50 264.50Q253 250 229 250Q214 250 202 255Q180 265 180 292L180 301Q188 360 239 417Q250 428 268.50 440Q287 452 304 458Q301 462 301 471Q301 484 305 493Q306 497 309 497Q313 497 314 493Q316 488 320.50 485Q325 482 335 482Q358 482 384.50 486Q411 490 434 492Q439 492 443 492.50Q447 493 452 493Q475 493 492 487Q509 481 520 467Q531 454 531 436Q531 427 528 418Q521 397 507.50 375.50Q494 354 477 331Q411 241 325.50 149Q240 57 149-37Q199-3 241.50 27Q284 57 324.50 84Q365 111 406.50 136.50Q448 162 496 188Q501 191 506 194.50Q511 198 514 198Q517 198 517 195L517 194Q517 190 512 187Q498 180 479 156Q465 140 453 111.50Q441 83 435 55Q434 50 433.50 45.50Q433 41 433 36Q433 19 440.50 9Q448-1 460-1Q479-1 502 22Q554 74 554 151L554 159Q553 177 544.50 186Q536 195 530 197Q525 199 525 203Q525 206 530 208Q536 210 542.50 214Q549 218 551 220Q552 221 555 221Q558 221 563 218Q572 210 587 207.50Q602 205 617 203L633 203L659 203Q666 203 666 200Z"  horiz-adv-x="633" vert-adv-y="1000"  />

      
      <glyph glyph-name="uni27" unicode="&#x27;" d="M328 462Q328 463 326 457Q314 435 293.50 408Q273 381 261 362Q255 353 246 340Q237 327 227 312.50Q217 298 208 283.50Q199 269 192 257Q189 253 186 253Q180 253 180 258Q180 262 181 263Q211 319 236.50 367.50Q262 416 295 465Q302 474 311 474Q317 474 322 470Q328 465 328 462Z"  horiz-adv-x="218" vert-adv-y="1000"  />

      
      <glyph glyph-name="uni28" unicode="&#x28;" d="M459 507Q459 504 456 503Q432 492 406 474Q380 456 358 434Q328 404 299 367.50Q270 331 244 291.50Q218 252 196.50 212Q175 172 160 136Q146 104 138 74.50Q130 45 130 20Q130-23 161-48Q163-50 163-52Q163-55 160-55Q158-55 157-54Q130-37 115-11.50Q100 14 100 48Q100 72 111 108Q131 171 168.50 233Q206 295 249 346Q294 397 346 440.50Q398 484 453 510L455 510Q457 510 459 508L459 507L459 507Z"  horiz-adv-x="366" vert-adv-y="1000"  />

      
      <glyph glyph-name="uni29" unicode="&#x29;" d="M474 398Q474 369 463.50 336Q453 303 439 274Q414 220 384 173.50Q354 127 322.50 89.50Q291 52 258.50 24Q226-4 196-22Q162-43 128-53L125-53Q121-53 121-50Q121-47 125-46Q160-35 190-12Q220 11 246 41Q274 73 301.50 111.50Q329 150 353.50 190.50Q378 231 397.50 270.50Q417 310 429 345Q439 372 444.50 396.50Q450 421 450 441Q450 478 428 499Q426 501 426 503L426 504Q427 504 427 505Q428 506 429 506Q431 506 432 505Q455 485 464.50 459Q474 433 474 398Z"  horiz-adv-x="406" vert-adv-y="1000"  />

      
      <glyph glyph-name="uni2a" unicode="&#x2a;" d="M371 365Q371 355 357 352Q339 347 317 342.50Q295 338 265 330Q288 310 310 297Q332 284 344 274Q348 271 348 266Q348 260 341 256Q335 254 334 254Q330 254 326 258Q314 269 296.50 285Q279 301 258 321Q255 292 254 268Q253 244 252 225Q252 221 246.50 219Q241 217 235 216L232 216Q223 216 223 223L223 226Q227 240 234.50 266.50Q242 293 250 325Q222 315 200 305Q178 295 160 287Q159 287 159 286.50Q159 286 158 286Q154 286 150.50 289.50Q147 293 146 297L146 299Q146 311 158 313Q175 316 198 320Q221 324 247 332Q231 345 211 359Q191 373 168 390Q162 394 162 401Q162 406 165 409Q170 414 177 414Q181 414 184 411Q201 393 215.50 377Q230 361 253 339Q257 371 260 396.50Q263 422 266 439Q267 444 272 446Q277 448 283 448L285 448Q293 448 293 440Q293 440 291 432Q284 411 277 390.50Q270 370 262 338Q291 348 311 356.50Q331 365 350 375Q356 377 357 377Q367 377 370 368Q370 367 370.50 366.50Q371 366 371 365Z"  horiz-adv-x="254" vert-adv-y="1000"  />

      
      <glyph glyph-name="uni2b" unicode="&#x2b;" d="M198 278L228 278L228 154L352 154L352 124L228 124L228 0L198 0L198 124L74 124L74 154L198 154L198 278Z"  horiz-adv-x="400" vert-adv-y="1000"  />

      
      <glyph glyph-name="uni2c" unicode="&#x2c;" d="M159 69Q159 59 151 51Q124 24 102.50 2.50Q81-19 61.50-39.50Q42-60 23-80.50Q4-101-18-126Q-22-130-26-130Q-31-130-31-124Q-31-121-28-116Q17-65 57.50-13Q98 39 138 93Q142 100 149 100Q155 100 157 91Q158 86 158.50 79.50Q159 73 159 69Z"  horiz-adv-x="210" vert-adv-y="1000"  />

      
      <glyph glyph-name="uni2d" unicode="&#x2d;" d="M282 136Q282 128 269 128L268 128L222 128L198 128Q189 128 179 127.50Q169 127 154 127L116 127Q106 127 106 133Q106 136 109 139Q112 142 118 142L119 142Q133 142 144 141.50Q155 141 164 141Q177 141 186.50 141.50Q196 142 207 142Q219 142 233.50 142.50Q248 143 271 143Q282 143 282 136Z"  horiz-adv-x="231" vert-adv-y="1000"  />

      
      <glyph glyph-name="uniad" unicode="&#xad;" d="M282 136Q282 128 269 128L268 128L222 128L198 128Q189 128 179 127.50Q169 127 154 127L116 127Q106 127 106 133Q106 136 109 139Q112 142 118 142L119 142Q133 142 144 141.50Q155 141 164 141Q177 141 186.50 141.50Q196 142 207 142Q219 142 233.50 142.50Q248 143 271 143Q282 143 282 136Z"  horiz-adv-x="231" vert-adv-y="1000"  />

      
      <glyph glyph-name="uni2e" unicode="&#x2e;" d="M145 44Q145 44 143 36Q138 23 128 12Q118 1 107-4Q106-5 100-5Q93-5 87.50-1.50Q82 2 82 10L82 13Q82 30 95.50 45.50Q109 61 126 61Q131 61 132 60Q145 56 145 44Z"  horiz-adv-x="220" vert-adv-y="1000"  />

      
      <glyph glyph-name="uni2f" unicode="&#x2f;" d="M410 548Q410 547 396 516.50Q382 486 359.50 436Q337 386 307.50 323Q278 260 248 194Q177 39 86-156Q81-164 74-164Q66-164 66-157Q66-154 80-122.50Q94-91 116.50-41Q139 9 168 71.50Q197 134 227 199Q258 265 287 326.50Q316 388 339 436Q350 461 363 488Q376 515 390 545Q397 555 402 555Q410 555 410 548Z"  horiz-adv-x="368" vert-adv-y="1000"  />

      
      <glyph glyph-name="uni30" unicode="&#x30;" d="M316 382Q318 377 322 369Q326 361 333 356Q344 348 352.50 346Q361 344 377 342L386 342Q392 342 395 343Q394 350 392 356.50Q390 363 388 369Q377 392 353 392Q345 392 328 387Q326 386 323 385Q320 384 316 382M281 376Q280 378 280 380.50Q280 383 279 385L310 388Q328 396 345.50 403Q363 410 378 418Q384 421 390 421Q398 421 402 417Q416 408 423.50 393.50Q431 379 434 362Q435 360 435 353Q456 361 476 371Q496 381 517 393Q525 398 532 402.50Q539 407 547 412Q551 416 551 413Q555 412 550 408Q544 404 536 398.50Q528 393 520 388Q500 376 479 364.50Q458 353 436 345L436 338Q436 315 430.50 290.50Q425 266 417 243Q402 201 377 157.50Q352 114 320 77Q288 39 246.50 14Q205-11 157-11Q154-11 150.50-10.50Q147-10 144-10Q102-6 83 15Q64 36 64 71Q64 90 70 114Q81 160 111 211.50Q141 263 183 309Q195 323 216.50 340Q238 357 263 368Q268 370 272 372Q276 374 281 376M314 340Q303 345 298.50 349Q294 353 290 357Q286 361 285 367Q248 345 223 318Q188 280 161.50 235.50Q135 191 119 130Q115 116 114 104Q113 92 113 81Q113 44 130 24Q147 4 176 4Q212 4 252 32Q280 51 303 77Q326 103 343 133.50Q360 164 372.50 197Q385 230 392 263Q395 277 396 290Q397 303 397 315L397 324Q397 331 396 334Q389 333 382.50 332.50Q376 332 369 332Q358 332 340.50 333.50Q323 335 314 340Z"  horiz-adv-x="397" vert-adv-y="1000"  />

      
      <glyph glyph-name="uni31" unicode="&#x31;" d="M359 420Q359 417 356 413Q287 316 233 226.50Q179 137 140 58Q123 26 123 5Q123-12 134-26Q135-27 135-30Q135-34 132-34Q130-34 128-32Q121-24 114.50-14.50Q108-5 103 0Q91 15 91 33Q91 51 101 71Q114 98 135.50 134.50Q157 171 183 211.50Q209 252 236.50 293Q264 334 288 368L290 372L290 373Q290 374 289 374Q288 374 286 372Q244 339 204.50 305Q165 271 116 226Q111 223 109 223L107 223L107 225Q107 229 110 234Q120 245 128.50 253.50Q137 262 151 272Q190 303 225 331.50Q260 360 298 392Q303 396 308 400Q313 404 318 406Q326 409 336 413.50Q346 418 350 420Q352 421 353 421.50Q354 422 356 422Q359 422 359 420Z"  horiz-adv-x="254" vert-adv-y="1000"  />

      
      <glyph glyph-name="uni32" unicode="&#x32;" d="M434 39Q434 34 433 33Q431 26 429 15Q427 4 426-1Q425-5 422-5Q423-5 417-3Q401 13 377.50 23.50Q354 34 327 41Q300 48 271.50 52.50Q243 57 217 60Q207 62 197.50 62.50Q188 63 179 64Q161 49 142.50 35.50Q124 22 107 11Q81-6 57-6Q46-6 33-1Q6 11 6 31Q6 44 21 58Q64 95 146 97L164 97Q174 97 183.50 96.50Q193 96 203 96Q220 110 236.50 124.50Q253 139 268 154Q300 186 327 219Q354 252 371 287Q380 306 380 324Q380 348 363 363Q346 378 317 378L310 378Q245 374 207 326Q197 314 195 310Q193 306 187 298Q185 296 183 296Q179 296 179 300Q179 302 180 303Q183 306 187.50 312Q192 318 193 320Q198 326 202.50 332Q207 338 210 342Q218 352 229 363Q240 374 251 383Q292 418 344 418L355 418Q359 418 367 416Q421 405 421 359Q421 339 410 315Q401 295 383 270.50Q365 246 345 222.50Q325 199 305.50 178.50Q286 158 273 146Q262 136 248 123Q234 110 217 96Q280 93 335 82Q390 71 422 54Q434 46 434 39M161 65Q156 66 146 66L131 66Q79 66 35 55Q26 53 21.50 47Q17 41 17 35Q17 22 35 19Q38 19 41 18.50Q44 18 47 18Q64 18 82 23.50Q100 29 119 39Q129 44 139.50 50.50Q150 57 161 65Z"  horiz-adv-x="408" vert-adv-y="1000"  />

      
      <glyph glyph-name="uni33" unicode="&#x33;" d="M376 385Q376 375 372 367Q358 330 321.50 301Q285 272 240 249Q239 249 239 247Q239 246 241 246Q254 245 267 241Q280 237 291 225Q310 203 310 171Q310 142 293 106Q281 80 263 56.50Q245 33 224.50 13Q204-7 181.50-22.50Q159-38 138-48Q111-61 84-70.50Q57-80 34-80Q14-80-2.50-71Q-19-62-30-39Q-31-38-31-35Q-31-33-29-33Q-27-33-24-36Q-14-51 3-57.50Q20-64 40-64Q63-64 87.50-57.50Q112-51 132-40Q174-18 205.50 18.50Q237 55 252 109Q259 131 259 155Q259 186 244.50 203Q230 220 204 220Q185 220 163 211L161 211Q156 211 156 215Q156 217 158 219Q176 228 202 241Q228 254 251 266Q271 277 293 293.50Q315 310 325 327Q333 341 333 356Q333 373 322 383.50Q311 394 291 394Q289 394 286 393.50Q283 393 281 393Q264 391 253.50 384Q243 377 232 368Q231 367 228 367Q225 367 225 369Q225 372 227 374Q250 395 273 406Q284 411 299 415Q314 419 330 419L337 419Q355 417 365.50 408Q376 399 376 385Z"  horiz-adv-x="318" vert-adv-y="1000"  />

      
      <glyph glyph-name="uni34" unicode="&#x34;" d="M512 162Q512 162 510 152Q505 133 492 117Q491 116 488 116Q484 116 484 119Q484 121 485 122Q490 130 490 133Q490 140 481 143Q455 152 417.50 156Q380 160 338 161Q321 129 305.50 97Q290 65 278 36Q270 15 270 1Q270-7 271-10L271-12Q271-16 268-16Q265-16 262-12Q257-5 253.50 2Q250 9 245 15Q238 22 238 35Q238 41 243 53Q257 79 272 107Q287 135 303 161Q251 160 201.50 157Q152 154 116 150Q81 146 61 139Q59 138 54 138Q49 138 49 143L49 144Q50 150 50.50 154.50Q51 159 51 163Q51 170 55.50 172Q60 174 65 175Q73 176 79.50 176.50Q86 177 92 177Q98 177 104 177.50Q110 178 115 179Q120 180 126.50 182.50Q133 185 141 189Q198 221 251 257Q304 293 341 325Q355 337 362 352.50Q369 368 369 383Q369 397 363 408Q362 409 362 413Q362 417 365 420Q372 425 380.50 429.50Q389 434 395 436Q396 437 399 437Q403 437 406 432Q411 420 411 409Q411 396 407 387Q400 370 386 353.50Q372 337 352 320Q313 288 264.50 253.50Q216 219 159 185Q156 183 156 182Q156 179 160 179L161 179Q200 180 236 181Q272 182 306 182L316 182Q329 203 340 222Q351 241 361 256Q368 268 377.50 281Q387 294 398 307Q409 320 419.50 331.50Q430 343 439 351Q464 373 502 396Q503 397 505 397Q507 397 507 396Q507 395 508 394L508 393Q509 393 509 392Q509 389 507 387Q477 369 458.50 350.50Q440 332 420 301Q403 276 385 245.50Q367 215 349 182Q362 181 374.50 181Q387 181 400 181Q413 181 425 180.50Q437 180 449 179Q465 178 478.50 177.50Q492 177 501 175Q512 173 512 162Z"  horiz-adv-x="450" vert-adv-y="1000"  />

      
      <glyph glyph-name="uni35" unicode="&#x35;" d="M471 484Q471 475 466 460Q454 431 432.50 412Q411 393 385 382Q347 366 304 366Q273 366 246 373L244 373Q241 373 236 368Q229 360 220 348Q211 336 205 325Q195 306 195 294Q195 277 211 264Q225 250 241.50 241.50Q258 233 272 223Q296 203 296 172Q296 147 279 115Q255 73 225.50 46Q196 19 169 1Q139-19 108.50-33Q78-47 40-49L36-49Q15-50-2-36.50Q-19-23-19 0Q-19 7-18 9Q-18 14-15 14Q-12 14-12 10L-12 8Q-12 6-12.50 4Q-13 2-13 0Q-13-38 35-38L39-38Q74-39 106-25.50Q138-12 164 10Q187 29 207 54Q227 79 240 105Q251 130 251 148Q251 176 228 199Q219 208 209 214.50Q199 221 188 229Q185 231 181.50 233Q178 235 175 238Q164 247 164 257Q164 259 164.50 259.50Q165 260 165 262Q173 297 197.50 333.50Q222 370 254 410Q256 416 265 416Q266 416 267 415.50Q268 415 269 415Q282 411 296.50 409.50Q311 408 326 408Q354 408 371 412Q401 417 423.50 430Q446 443 457 464Q463 476 463 487Q463 493 458 505Q457 506 457 509Q457 511 460 511Q463 511 465 509Q471 498 471 484Z"  horiz-adv-x="297" vert-adv-y="1000"  />

      
      <glyph glyph-name="uni36" unicode="&#x36;" d="M558 406Q558 397 555 390Q554 386 551 386Q549 386 549 389L549 390Q549 392 549.50 392.50Q550 393 550 395Q550 409 535 420Q515 431 486 431L477 431Q406 428 330 374Q294 349 261 315.50Q228 282 208 255Q190 231 175 207.50Q160 184 148 156Q186 192 221 206Q242 215 266 215Q279 215 290.50 211.50Q302 208 311 200Q326 185 326 162Q326 144 315 119Q298 84 269.50 53.50Q241 23 206 6Q189-3 171.50-7Q154-11 138-11Q107-11 90 6Q74 23 74 52Q74 63 75.50 74.50Q77 86 82 99Q106 174 169 245Q206 287 247 321.50Q288 356 327 382Q367 409 403 425.50Q439 442 477 449Q483 450 489 450.50Q495 451 500 451Q524 451 540 441Q558 429 558 406M302 173Q302 206 267 206L257 206Q254 206 248 204Q219 198 192 181Q165 164 143 136Q138 130 133 120.50Q128 111 126 103Q121 87 119 73.50Q117 60 117 49Q117-1 154-1Q189-1 241 48Q288 95 300 155Q301 160 301.50 164.50Q302 169 302 173Z"  horiz-adv-x="334" vert-adv-y="1000"  />

      
      <glyph glyph-name="uni37" unicode="&#x37;" d="M474 410Q474 407 472 405Q461 395 448 386.50Q435 378 419 372Q368 318 320.50 269Q273 220 234 181Q205 152 184 124Q163 96 152 74Q140 50 140 31Q140 18 146 9Q148 6 150 3.50Q152 1 155 0Q159-1 159-5Q159-8 155-9Q147-11 138.50-14Q130-17 125-20Q119-22 118-22Q113-22 110-18Q100-5 100 15Q100 23 101 26Q103 38 108.50 51Q114 64 125 77Q148 106 176.50 137Q205 168 238 200Q280 242 321 284Q362 326 397 363Q398 364 398 365Q398 367 395 367Q394 367 393.50 366.50Q393 366 392 366Q369 360 341 360L322 360Q317 360 312.50 360.50Q308 361 303 362Q285 364 267.50 366Q250 368 232 370L222 370Q181 370 161 341Q139 310 123 259Q122 255 118 255Q115 255 115 259L115 260Q134 327 175 376Q189 392 207.50 401Q226 410 246 410Q249 410 251.50 409.50Q254 409 257 409Q290 405 320 397Q350 389 383 385Q388 384 393.50 383.50Q399 383 404 383Q406 383 407 383.50Q408 384 410 384Q420 385 428 395Q449 417 464 417L467 417Q474 416 474 410Z"  horiz-adv-x="322" vert-adv-y="1000"  />

      
      <glyph glyph-name="uni38" unicode="&#x38;" d="M402 383Q402 370 398 361Q390 341 370.50 320Q351 299 327 282Q314 273 301 265Q288 257 275 249L279 242Q287 232 293.50 223.50Q300 215 305 206Q317 185 317 162Q317 144 306 119Q286 80 250 45.50Q214 11 169-5Q145-13 128-13Q98-13 77.50 4.50Q57 22 57 54L57 60Q57 65 58 68Q62 94 78.50 116.50Q95 139 117.50 158.50Q140 178 165 193.50Q190 209 210 221L231 233Q224 245 220 256Q216 267 216 281Q216 310 235 338Q258 371 291 394.50Q324 418 359 418L364 418Q402 414 402 383M369 373Q369 402 339 402Q327 402 318 398Q278 383 256 346Q245 329 245 311Q245 294 254 278Q256 274 260 268.50Q264 263 269 256Q278 261 286.50 267Q295 273 303 278Q344 307 362 347Q365 355 367 361Q369 367 369 373M283 127Q283 151 269 176Q264 184 257.50 193Q251 202 244 213Q242 216 239.50 219.50Q237 223 235 226Q217 215 200 204.50Q183 194 166 183Q137 164 117 140.50Q97 117 93 85Q93 82 92.50 79.50Q92 77 92 75Q92 46 111 28Q130 10 159 10Q185 10 216 30Q247 50 267 79Q283 101 283 127Z"  horiz-adv-x="319" vert-adv-y="1000"  />

      
      <glyph glyph-name="uni39" unicode="&#x39;" d="M396 362Q396 335 386 306Q361 226 304 155Q271 113 237 82.50Q203 52 168 29Q138 9 112.50-0.50Q87-10 57-14Q55-15 50-15L44-15Q1-15-23 16Q-24 17-24 19Q-24 22-21 22Q-20 22-19 21Q-7 9 8.50 4Q24-1 41-1L46-1Q82-1 113.50 12Q145 25 172 46Q199 67 222 94Q245 121 264 149Q281 173 296 200.50Q311 228 325 260Q287 219 249 206Q225 197 204 197Q189 197 176 202Q163 207 153 219Q144 231 144 248Q144 268 157 293Q173 324 201.50 353.50Q230 383 267 400Q306 419 336 419Q356 419 369 412Q396 398 396 362M359 370Q359 407 325 407Q295 407 254 379Q226 360 202.50 328Q179 296 169 260Q166 251 166 243Q166 226 177 217Q188 208 207 208Q219 208 222 209Q273 218 313 264Q319 271 324.50 279Q330 287 335 296Q359 342 359 370Z"  horiz-adv-x="315" vert-adv-y="1000"  />

      
      <glyph glyph-name="uni3a" unicode="&#x3a;" d="M209 209Q209 209 207 201Q202 188 192 177Q182 166 171 161Q170 160 164 160Q157 160 151.50 163.50Q146 167 146 175L146 178Q146 195 159.50 210.50Q173 226 190 226Q195 226 196 225Q209 221 209 209M121 44Q121 44 119 36Q114 23 104 12Q94 1 83-4Q82-5 76-5Q69-5 63.50-1.50Q58 2 58 10L58 13Q58 30 71.50 45.50Q85 61 102 61Q107 61 108 60Q121 56 121 44Z"  horiz-adv-x="239" vert-adv-y="1000"  />

      
      <glyph glyph-name="uni3b" unicode="&#x3b;" d="M207 210Q207 204 206 202Q201 189 191 178Q181 167 170 162Q169 161 163 161Q156 161 150.50 164.50Q145 168 145 176L145 179Q145 196 158 211.50Q171 227 188 227Q194 227 195 226Q207 223 207 210M136 68Q136 58 129 51Q102 24 80.50 2.50Q59-19 39.50-39.50Q20-60 1-80.50Q-18-101-40-126Q-44-130-48-130Q-53-130-53-124Q-53-121-50-116Q-5-65 35.50-13Q76 39 116 93Q120 100 127 100Q132 100 134 91Q135 86 135.50 80Q136 74 136 68Z"  horiz-adv-x="231" vert-adv-y="1000"  />

      
      <glyph glyph-name="uni037E" unicode="&#x037E;" d="M207 210Q207 204 206 202Q201 189 191 178Q181 167 170 162Q169 161 163 161Q156 161 150.50 164.50Q145 168 145 176L145 179Q145 196 158 211.50Q171 227 188 227Q194 227 195 226Q207 223 207 210M136 68Q136 58 129 51Q102 24 80.50 2.50Q59-19 39.50-39.50Q20-60 1-80.50Q-18-101-40-126Q-44-130-48-130Q-53-130-53-124Q-53-121-50-116Q-5-65 35.50-13Q76 39 116 93Q120 100 127 100Q132 100 134 91Q135 86 135.50 80Q136 74 136 68Z"  horiz-adv-x="231" vert-adv-y="1000"  />

      
      <glyph glyph-name="uni3c" unicode="&#x3c;" d="M277 228Q275 222 271 221Q269 219 266 217.50Q263 216 261 214Q249 205 234 193.50Q219 182 202.50 169.50Q186 157 170 144.50Q154 132 140 121Q131 113 131 107Q131 107 133 97Q139 77 149 45.50Q159 14 170-10L172-16Q172-17 171-18Q170-19 165-19Q161-20 155.50-21Q150-22 146-24Q145-25 142-25Q137-25 135-17Q129 5 120.50 35.50Q112 66 102 96L102 98Q102 103 109 107Q117 112 127 120.50Q137 129 147 137Q177 161 209.50 187.50Q242 214 270 234Q271 235 273 235Q277 235 277 230L277 228L277 228Z"  horiz-adv-x="251" vert-adv-y="1000"  />

      
      <glyph glyph-name="uni3e" unicode="&#x3e;" d="M231 114Q231 108 227 105Q193 79 153.50 44.50Q114 10 84-22Q82-24 77.50-27Q73-30 68-30Q64-30 63-29Q60-28 60-25Q60-22 66-17Q95 5 129.50 34Q164 63 193 90Q200 96 200 101Q200 106 196 110Q181 131 165.50 159Q150 187 133 213Q131 219 131 219Q131 221 136 223Q143 225 147.50 226.50Q152 228 157 228Q164 228 168 221Q180 201 196.50 171Q213 141 229 120Q231 114 231 114Z"  horiz-adv-x="225" vert-adv-y="1000"  />

      
      <glyph glyph-name="uni3f" unicode="&#x3f;" d="M397 374Q397 358 392 344Q382 316 357.50 290Q333 264 304 243Q278 224 255 209Q232 194 214 177Q197 160 197 143Q197 112 232 104Q236 103 236 100Q236 95 231 95L230 95Q225 95 221 95.50Q217 96 212 96Q207 96 203 95.50Q199 95 194 95L192 95Q181 95 170 106Q153 123 153 149Q153 151 153.50 153.50Q154 156 154 158Q155 162 158.50 166.50Q162 171 168 173Q179 178 195.50 185.50Q212 193 227 203Q264 226 295.50 252Q327 278 344 315Q355 342 355 360Q355 387 339 403.50Q323 420 297 420Q286 420 274 417Q262 414 249 406Q229 395 215 379.50Q201 364 191 348Q189 346 185 346Q181 346 181 349Q181 351 182 352Q184 356 190.50 364Q197 372 206.50 382Q216 392 228 402Q240 412 253 420Q287 441 321 441Q337 441 354 435Q397 418 397 374M147 24Q147 20 144 17Q133 6 118 1Q110-1 109-1Q102-1 94 4Q88 8 88 20Q88 22 88.50 22.50Q89 23 89 25Q92 41 105 51Q108 53 113.50 56.50Q119 60 124 62Q125 63 127 63Q133 63 134 56Q135 39 144 31Q147 28 147 24Z"  horiz-adv-x="270" vert-adv-y="1000"  />

      
      <glyph glyph-name="uni40" unicode="&#x40;" d="M658 335Q658 286 625 229Q591 172 543 138Q495 104 438 104Q409 104 396.50 115.50Q384 127 384 148Q384 172 394 196Q398 207 403 218.50Q408 230 413 241Q393 216 373.50 194.50Q354 173 330 150Q310 130 293.50 121Q277 112 266 112Q249 112 249 134Q249 154 262 181Q274 207 291 232Q308 257 328 277.50Q348 298 370 313Q392 328 414 334Q435 340 458 340Q475 340 493 335Q496 335 496 331Q496 326 492 323Q482 316 470 295Q458 273 446 246.50Q434 220 424 194Q418 177 418 162Q418 141 430 129Q442 117 463 117Q474 117 488.50 121Q503 125 519 134Q603 180 624 305Q627 320 627 333Q627 390 589 421Q551 452 488 452Q484 452 480 451.50Q476 451 471 451Q414 447 370 427.50Q326 408 284 378Q239 345 197.50 294Q156 243 137 177Q127 144 127 109Q127 40 168 0.50Q209-39 278-39Q328-39 388-15Q419-2 445 17.50Q471 37 489 59Q500 73 505 79.50Q510 86 512 94Q512 98 515 98L516 98Q518 96 518 94L518 92Q516 81 508.50 68Q501 55 488 43Q471 26 449 10Q427-6 395-22Q362-38 329.50-47Q297-56 263-56Q246-56 228.50-53.50Q211-51 193-45Q141-28 114 10Q87 48 87 97Q87 118 91.50 139.50Q96 161 107 183Q138 249 183.50 302Q229 355 277 386Q331 421 384 441Q437 461 497 461L511 461Q520 461 525 460Q589 454 623.50 420Q658 386 658 335M460 330Q457 331 448 331Q437 331 425 327Q413 323 403 315Q368 286 338 245Q308 204 289 159Q285 152 285 143Q285 134 292 134Q298 134 309 143Q341 173 370 206Q399 239 430 281Q438 292 446 304Q454 316 460 330Z"  horiz-adv-x="582" vert-adv-y="1000"  />

      
      <glyph glyph-name="uni5b" unicode="&#x5b;" d="M454 498Q454 494 448 494L413 494L390 494Q385 494 379 494Q373 494 368 493Q359 491 353 483Q314 415 279.50 353Q245 291 212.50 229.50Q180 168 147 104.50Q114 41 78-29Q75-35 75-39Q75-49 89-49L121-49L152-49Q160-49 167.50-49Q175-49 183-48Q191-48 191-54Q191-57 188-58Q185-59 183-59Q163-59 143.50-58.50Q124-58 104-58Q82-58 60.50-58.50Q39-59 17-59Q10-59 10-54Q10-51 12-49Q16-45 21-38Q26-31 29-25Q115 124 182.50 248Q250 372 304 481Q306 486 306.50 489Q307 492 307 494Q307 502 314 502Q328 502 342.50 501Q357 500 371 500Q391 500 411 501Q431 502 447 502L448 502Q454 502 454 498Z"  horiz-adv-x="338" vert-adv-y="1000"  />

      
      <glyph glyph-name="uni5c" unicode="&#x5c;" d="M414-157Q414-164 407-164Q400-164 395-156Q335 40 287 195Q267 261 247.50 324Q228 387 213 436.50Q198 486 189 516.50Q180 547 180 548Q180 555 188 555Q193 555 196.50 550Q200 545 209 515Q214 500 220 480.50Q226 461 234 436Q249 388 268 326.50Q287 265 307 199Q327 134 346 71Q365 8 380-41.50Q395-91 404.50-122.50Q414-154 414-157Z"  horiz-adv-x="368" vert-adv-y="1000"  />

      
      <glyph glyph-name="uni5d" unicode="&#x5d;" d="M527 497Q527 495 524 492Q520 488 515.50 481Q511 474 508 468Q427 324 362 198.50Q297 73 243-38Q241-43 240.50-46Q240-49 240-51Q240-59 233-59Q220-59 204-58Q188-57 171-57Q148-57 125-58Q102-59 86-59Q80-59 80-54Q80-48 86-48L125-48L152-48Q159-48 165-48Q171-48 176-47Q185-45 191-37Q230 31 264.50 93Q299 155 331.50 216Q364 277 396.50 339.50Q429 402 465 473Q468 479 468 483Q468 493 454 493L442 493Q425 493 407.50 492Q390 491 373 490Q365 490 365 495Q365 498 368 499Q371 500 373 500L401 500Q429 500 455 501Q481 502 519 502Q521 502 524 501Q527 500 527 497Z"  horiz-adv-x="352" vert-adv-y="1000"  />

      
      <glyph glyph-name="uni5e" unicode="&#x5e;" d="M166 265L267 466L292 466L394 265L363 265L280 430L196 265L166 265Z"  horiz-adv-x="400" vert-adv-y="1000"  />

      
      <glyph glyph-name="uni5f" unicode="&#x5f;" d="M0-50L0 0L500 0L500-50L0-50Z"  horiz-adv-x="500" vert-adv-y="1000"  />

      
      <glyph glyph-name="uni60" unicode="&#x60;" d="M147 258Q147 256 146 256Q145 256 143 258Q130 281 117 306Q104 331 94 351Q91 357 91 362Q91 367 96 374Q99 377 101 377Q104 377 105 373Q112 356 117.50 341.50Q123 327 128 316Q133 303 138 289Q143 275 147 260L147 258L147 258Z"  horiz-adv-x="230" vert-adv-y="1000"  />

      
      <glyph glyph-name="uni61" unicode="&#x61;" d="M367 122Q353 104 336.50 84.50Q320 65 301 47.50Q282 30 262.50 15Q243 0 224-10Q164-41 147.50-21.50Q131-2 151 62Q156 78 163 95.50Q170 113 180 133Q154 98 126.50 66.50Q99 35 70 18Q41 0 29.50 13.50Q18 27 34 57Q54 93 84 123.50Q114 154 143 174Q158 185 175 193Q192 201 209 201Q216 216 224 229.50Q232 243 240 254Q243 258 247 258Q252 258 252 252Q252 248 253 245.50Q254 243 255 241L257 237Q260 231 257 227Q225 176 207 134.50Q189 93 180 48Q173 14 186.50 2Q200-10 231 4Q247 11 265 24.50Q283 38 300 54.50Q317 71 333 89.50Q349 108 361 126Q364 131 367 128.50Q370 126 367 122M204 191Q190 191 173.50 182.50Q157 174 141 160Q133 154 123 143Q113 132 103.50 118.50Q94 105 86 91Q78 77 74 64Q67 44 74 39.50Q81 35 96 49Q124 75 152.50 110.50Q181 146 204 191Z"  horiz-adv-x="269" vert-adv-y="1000"  />

      
      <glyph glyph-name="uni62" unicode="&#x62;" d="M542 617Q548 598 547 581.50Q546 565 539 548Q534 535 520.50 516.50Q507 498 490 481Q474 465 452 443.50Q430 422 407 400Q384 378 361 356.50Q338 335 320 319Q302 304 282.50 286Q263 268 243 250Q223 232 202.50 216.50Q182 201 162 191L158 189Q154 187 152.50 185Q151 183 149 179Q143 168 136.50 154Q130 140 123.50 126Q117 112 111 98Q105 84 101 74Q96 60 93.50 42Q91 24 95 13Q97 7 103 6.50Q109 6 116 9Q130 17 144.50 31Q159 45 169 61Q174 69 179 80Q184 91 186 98Q188 106 190.50 114Q193 122 191 128Q188 141 186 159.50Q184 178 184 195Q184 208 194 207Q198 206 204 206.50Q210 207 212 209Q216 212 219 208Q222 204 222 197Q221 174 223.50 150Q226 126 232 111Q237 97 251 93.50Q265 90 279 96Q302 107 323 122Q344 137 364 159Q369 164 371.50 162Q374 160 370 155Q348 131 317.50 110Q287 89 255 76Q241 71 227.50 70Q214 69 210 77Q205 85 201 85Q196 85 195 81Q187 61 163 37Q149 20 127.50 5.50Q106-9 84-19Q64-27 52-18Q40-8 44 14Q50 45 67 82.50Q84 120 102 152Q107 160 111.50 166.50Q116 173 121 182Q144 220 171.50 261.50Q199 303 228 345Q243 366 261.50 390.50Q280 415 301 441Q322 467 343.50 492.50Q365 518 386 541Q402 558 424.50 579Q447 600 466 614Q477 622 490.50 629.50Q504 637 517 637Q525 637 532 632.50Q539 628 542 617M503 566Q501 617 457 592Q438 582 417.50 561.50Q397 541 377 520Q352 493 324 457Q296 421 268.50 380.50Q241 340 214.50 296.50Q188 253 166 210Q164 207 166.50 206.50Q169 206 171 208Q205 233 246.50 267Q288 301 327.50 337Q367 373 402 408Q437 443 460 470Q481 494 492.50 517Q504 540 503 566Z"  horiz-adv-x="246" vert-adv-y="1000"  />

      
      <glyph glyph-name="uni63" unicode="&#x63;" d="M265 82Q265 79 262 76Q247 62 221 42.50Q195 23 163 5Q125-16 98-16Q49-16 49 32Q49 56 62 81Q77 114 93 134.50Q109 155 127.50 168.50Q146 182 167.50 191Q189 200 216 209Q222 211 223 211Q233 211 239 203Q245 195 245 189Q245 185 242 179Q240 174 236 167Q232 160 227 160Q224 160 219 168Q214 178 207.50 184.50Q201 191 191 191Q178 191 165 181Q145 167 127.50 141Q110 115 95 79Q84 49 84 31Q84-1 114-1Q138-1 174 20Q194 32 219 50Q244 68 259 82Q261 84 263 84Q265 84 265 82Z"  horiz-adv-x="239" vert-adv-y="1000"  />

      
      <glyph glyph-name="uni64" unicode="&#x64;" d="M614 695Q619 695 617.50 689Q616 683 612 685Q603 688 590 686Q577 684 568 675Q554 661 535 640Q516 619 493 585Q456 532 414.50 466Q373 400 330.50 326Q288 252 246.50 172.50Q205 93 169 14Q153-21 160.50-27Q168-33 201-14Q239 7 279.50 41Q320 75 362 121Q367 126 369.50 123Q372 120 367 114Q345 91 318.50 67Q292 43 264.50 20.50Q237-2 209.50-20.50Q182-39 157-52Q120-72 112.50-64Q105-56 119-21Q125-5 135.50 18Q146 41 159 65Q146 51 133 37Q120 23 106 11Q61-25 46.50-9Q32 7 54 61Q60 76 70 94.50Q80 113 92.50 132Q105 151 119 168Q133 185 147 197Q160 208 177 214.50Q194 221 209 223Q228 228 239 213Q284 297 323 369Q362 441 393 492Q424 543 450.50 577.50Q477 612 500 637Q526 664 555 679.50Q584 695 614 695M213 161Q222 178 215 192Q208 206 194 208Q183 209 173 199Q158 183 144 162.50Q130 142 118 120Q106 98 96.50 75.50Q87 53 81 33Q74 13 80.50 8.50Q87 4 106 22Q141 55 168 91Q195 127 213 161Z"  horiz-adv-x="276" vert-adv-y="1000"  />

      
      <glyph glyph-name="uni65" unicode="&#x65;" d="M314 105Q297 77 274 56.50Q251 36 225.50 21.50Q200 7 175-2Q150-11 129-15Q79-26 56-7.50Q33 11 39 46Q41 62 52.50 84.50Q64 107 82 129Q100 151 122 170.50Q144 190 166 202Q190 214 206.50 211.50Q223 209 223 194Q223 183 214 170Q192 137 154.50 109.50Q117 82 79 59Q71 26 94 11Q109 0 135 0.50Q161 1 191.50 13Q222 25 253.50 49.50Q285 74 310 111Q314 116 315 112.50Q316 109 314 105M195 176Q206 194 197.50 200.50Q189 207 171 196Q143 178 117 143Q91 108 80 70Q158 113 195 176Z"  horiz-adv-x="228" vert-adv-y="1000"  />

      
      <glyph glyph-name="uni66" unicode="&#x66;" d="M485 484Q485 465 468 448Q466 445 462 440.50Q458 436 456 432Q454 429 452 429Q449 429 449 433Q449 435 450 436Q459 446 459 455Q459 459 455 464Q438 482 413 482L411 482Q380 482 349 460Q319 438 295 408Q271 378 247 339Q226 305 207 271Q188 237 169 203Q196 204 223.50 206Q251 208 281 210L283 211Q293 211 293 205Q293 203 290 200Q287 197 282 197Q251 197 222.50 196.50Q194 196 164 194Q129 130 95 66.50Q61 3 23-61Q-16-127-53-177.50Q-90-228-129-273Q-161-309-195.50-329Q-230-349-262-349L-267-349Q-292-347-312.50-332.50Q-333-318-347-287Q-358-262-362-238Q-366-214-366-198L-366-189Q-365-179-362.50-173Q-360-167-353-156Q-345-143-339-134Q-333-125-317-109Q-315-107-314-107Q-311-107-311-110Q-311-112-313-114Q-314-115-315.50-116Q-317-117-319-119Q-327-128-330.50-140Q-334-152-335-164L-335-178Q-335-222-315-270Q-290-331-245-333L-242-333Q-207-335-163-289Q-142-266-123-241Q-104-216-87-188Q-70-159-52.50-128.50Q-35-98-17-65Q19 1 53.50 66.50Q88 132 122 192Q108 191 94.50 190Q81 189 67 187Q65 187 64 186.50Q63 186 61 186Q47 186 34 193Q30 194 30 197Q30 200 35 200Q59 200 82 200.50Q105 201 128 202Q144 229 159 253.50Q174 278 189 301Q231 361 275 408.50Q319 456 373 488Q388 497 404.50 503.50Q421 510 437 511L443 511Q461 511 475 502Q485 495 485 484Z"  horiz-adv-x="194" vert-adv-y="1000"  />

      
      <glyph glyph-name="uni67" unicode="&#x67;" d="M368 135Q346 97 297.50 63.50Q249 30 191 9Q175 4 160-1.50Q145-7 130-12L115-38Q94-75 72.50-114.50Q51-154 28-193Q1-238-29-282.50Q-59-327-85-361Q-114-397-141.50-422Q-169-447-198.50-463Q-228-479-260-486.50Q-292-494-328-496Q-391-498-421.50-463.50Q-452-429-457-365Q-462-317-457-283Q-452-249-444-223Q-441-212-436-205Q-431-198-417-190Q-389-174-353-158.50Q-317-143-278-128Q-239-113-199.50-100Q-160-87-125-77Q-62-58-2.50-41.50Q57-25 117-7Q129 13 141 33Q153 53 164 70Q165 72 164.50 72.50Q164 73 163 71Q147 55 131 38Q115 21 102 10Q72-13 48-5Q37-2 34 10.50Q31 23 36 38Q45 64 64 94.50Q83 125 106 148Q129 173 159.50 192Q190 211 220 217Q227 219 234.50 219.50Q242 220 250 221L284 282Q286 287 289 291Q292 295 294 300Q294 302 295 305Q296 308 295 310Q290 314 295 316Q297 317 300.50 315Q304 313 307 308Q310 303 310.50 296Q311 289 308 282Q302 271 293.50 258Q285 245 276 231L270 222Q283 220 294 216Q304 211 305.50 203.50Q307 196 304 189.50Q301 183 296 178Q291 173 290 173Q286 173 289 178Q291 186 285 192.50Q279 199 270 204Q266 205 260 207Q255 199 250 192Q245 185 240 177Q231 162 219 142Q207 122 193 98.50Q179 75 164.50 49.50Q150 24 136-1Q149 4 161.50 8Q174 12 188 17Q245 37 292.50 69Q340 101 362 140Q365 146 368.50 144.50Q372 143 368 135M228 210Q210 208 192 199Q174 190 160 176Q134 151 110.50 113.50Q87 76 76 45Q67 21 74.50 13.50Q82 6 101 21Q119 37 139 57.50Q159 78 175 100Q181 109 189 121Q197 133 205 146.50Q213 160 221 173.50Q229 187 235 197L243 210L228 210M111-18Q48-38-12.50-54Q-73-70-122-85Q-172-100-224-118Q-276-136-318-154Q-342-164-357.50-171.50Q-373-179-383-187Q-393-195-398.50-203.50Q-404-212-407-223Q-417-249-422.50-285.50Q-428-322-424-364Q-417-449-379-476Q-341-503-263-472Q-231-458-204.50-437.50Q-178-417-152-388Q-134-368-114-343.50Q-94-319-74-292Q-54-265-34.50-237.50Q-15-210 2-185Q20-160 34-139Q48-118 60.50-98Q73-78 85-58.50Q97-39 111-18Z"  horiz-adv-x="260" vert-adv-y="1000"  />

      
      <glyph glyph-name="uni68" unicode="&#x68;" d="M608 650Q610 642 599 640Q514 628 452 578Q425 556 388.50 513.50Q352 471 318 422Q261 341 204.50 252.50Q148 164 99 70Q136 113 170.50 144.50Q205 176 247 210Q256 216 264 210Q269 203 260 187Q243 159 228 128Q213 97 202.50 68.50Q192 40 186.50 16.50Q181-7 183-21Q188-51 215.50-46.50Q243-42 289-7Q296-1 305 8Q314 17 324 26Q334 35 342.50 44Q351 53 356 59Q361 66 364 62.50Q367 59 362 53Q356 47 348 38.50Q340 30 331 21Q322 12 312.50 3Q303-6 295-12Q254-45 220.50-57.50Q187-70 167-63Q147-56 142-31.50Q137-7 152 32Q163 60 179 95Q195 130 212 162Q217 172 208 165Q180 142 157.50 120.50Q135 99 115 73Q109 66 106 61.50Q103 57 98 49Q96 47 95 45Q94 43 92 41Q90 39 86.50 36.50Q83 34 79 32Q56 22 51.50 28.50Q47 35 64 62Q121 159 184.50 251.50Q248 344 311 429Q356 489 401 541Q446 593 494 632Q507 643 527.50 655.50Q548 668 561 673Q597 689 605 669Q606 667 606 663Q606 659 607 658Q607 651 608 650Z"  horiz-adv-x="289" vert-adv-y="1000"  />

      
      <glyph glyph-name="uni6a" unicode="&#x6a;" d="M221 324Q217 316 212 308.50Q207 301 200 301Q187 301 182 315Q180 322 183 331Q186 340 193 351Q196 356 201.50 358Q207 360 212 355Q222 347 224 341Q226 335 221 324M176 215Q165 189 149 161Q133 133 120 109Q109 89 95.50 62Q82 35 66 4.50Q50-26 33-57.50Q16-89-1-117Q-32-169-63-210.50Q-94-252-124-280Q-147-301-168-315.50Q-189-330-209-338Q-216-343-207-343Q-196-342-184-341.50Q-172-341-158-341Q-145-341-131-341Q-117-341-101-342Q-75-343-45-339Q-15-335 5-327Q25-319 44-303.50Q63-288 71-269Q73-264 76.50-265Q80-266 79-271Q77-282 66.50-294.50Q56-307 42-316Q16-334-19.50-343Q-55-352-97-354Q-145-356-190-360Q-235-364-277-370Q-287-372-296-372Q-307-372-310-367Q-315-359-316-354Q-318-345-310-345Q-293-342-278-341Q-263-340-248.50-338Q-234-336-219.50-331.50Q-205-327-189-318Q-160-301-128.50-270.50Q-97-240-77-208Q-52-168-31-125.50Q-10-83 8-44Q29 1 51.50 47Q74 93 96 138Q100 147 106 157.50Q112 168 118 178.50Q124 189 129 197.50Q134 206 135 210Q138 218 149 222Q160 226 169 226Q174 226 176 222.50Q178 219 176 215Z"  horiz-adv-x="169" vert-adv-y="1000"  />

      
      <glyph glyph-name="uni6b" unicode="&#x6b;" d="M623 669Q628 663 617 661Q607 660 592 657.50Q577 655 562 650Q533 642 504.50 626Q476 610 447 584Q414 555 381 518Q348 481 316 438.50Q284 396 253 351Q222 306 194 262Q174 230 152 195Q130 160 109 123Q123 126 136.50 129Q150 132 161 137Q187 147 199.50 167.50Q212 188 207 211Q206 217 207.50 218.50Q209 220 213 220Q218 220 225 219.50Q232 219 237 219Q243 219 245 208Q248 186 236 168Q224 150 202 141Q181 133 154 125Q127 117 107 112Q106 111 102 111L100 107Q101 106 101.50 105Q102 104 104 102Q123 80 142 62.50Q161 45 178 32Q204 12 235 9Q266 6 289 25Q307 40 328.50 66Q350 92 364 118Q367 123 371 121.50Q375 120 371 114Q362 99 348.50 81Q335 63 319 45Q303 27 286 10.50Q269-6 254-18Q238-31 218-28Q198-25 182-15Q168-7 153.50 7.50Q139 22 123 41Q115 50 108 59.50Q101 69 93 77L87 84Q74 62 62.50 41Q51 20 40 0Q30-19 19-8Q12-1 19 9Q31 31 45 53.50Q59 76 73 99L86 119Q112 159 137 198Q162 237 186 272Q215 315 246 359.50Q277 404 309 446.50Q341 489 374 528Q407 567 440 599Q480 638 518.50 664Q557 690 595 696Q607 697 612 689Q615 684 618 678Q621 672 623 669Z"  horiz-adv-x="277" vert-adv-y="1000"  />

      
      <glyph glyph-name="uni6c" unicode="&#x6c;" d="M477 435Q429 378 373.50 333.50Q318 289 261 252Q234 235 205.50 220Q177 205 150 191Q136 165 124 141Q112 117 104 95Q87 53 99 30Q111 7 140 7Q159 7 185 19Q220 36 254 64.50Q288 93 318 131Q323 136 325.50 133Q328 130 323 125Q288 83 256.50 57.50Q225 32 200 17Q182 6 154-2Q126-10 104-7Q58 0 55 30.50Q52 61 75 109Q96 150 120 192.50Q144 235 166.50 272.50Q189 310 209 340.50Q229 371 242 389Q253 405 263.50 418.50Q274 432 285 445Q308 473 331 490Q360 512 397 517Q434 522 466 514Q496 507 499 485.50Q502 464 477 435M453 425Q466 442 464 458.50Q462 475 445 488Q422 506 393.50 505Q365 504 342 485Q323 470 306.50 447.50Q290 425 273 398Q246 356 216.50 305Q187 254 158 205L155 200Q181 213 207 227.50Q233 242 257 257Q272 267 298.50 286Q325 305 353.50 328Q382 351 409 376.50Q436 402 453 425Z"  horiz-adv-x="225" vert-adv-y="1000"  />

      
      <glyph glyph-name="uni6d" unicode="&#x6d;" d="M473 128Q445 94 409 60Q373 26 319 8Q307 4 293.50 3Q280 2 269 5Q248 11 245.50 26Q243 41 256 62Q271 85 286 112.50Q301 140 311 166Q318 183 313.50 189.50Q309 196 293 185Q267 168 240.50 138.50Q214 109 191 74Q183 57 178 45Q173 33 167 25Q156 8 144 14Q139 16 139.50 22Q140 28 145 34Q172 70 190.50 107Q209 144 212 173Q214 185 206.50 189Q199 193 185 182Q172 171 158.50 156Q145 141 133 124Q113 95 95.50 62.50Q78 30 61 4Q57-3 51-5.50Q45-8 40-2Q33 6 34 14.50Q35 23 44 38Q54 54 64 74Q74 94 82 114Q90 134 97 152.50Q104 171 108 185Q110 193 113.50 206Q117 219 121 221Q126 223 131.50 224Q137 225 140 227Q148 230 151 224.50Q154 219 149 205Q147 199 143 188.50Q139 178 134 165.50Q129 153 124 140Q119 127 115 117Q139 151 160.50 174Q182 197 195 203Q209 210 218.50 204.50Q228 199 226 179Q223 147 207 112Q230 141 255 166Q280 191 308 208Q324 218 339 219Q356 221 358 211Q360 201 352 186Q328 141 311 106.50Q294 72 288 47Q283 27 292 19.50Q301 12 320 18Q371 34 406 66.50Q441 99 467 133Q471 138 474 135.50Q477 133 473 128Z"  horiz-adv-x="373" vert-adv-y="1000"  />

      
      <glyph glyph-name="uni6e" unicode="&#x6e;" d="M347 99Q321 73 287.50 47.50Q254 22 223 6Q157-28 133.50-12.50Q110 3 148 67Q155 79 163 92.50Q171 106 178 120Q185 134 191 147Q197 160 200 171Q202 176 200 177Q198 178 195 176Q173 162 147.50 140Q122 118 103 96Q87 70 72 43Q57 16 38-9Q30-20 25-7Q21 1 20 10Q19 19 24 27Q35 47 49.50 66.50Q64 86 77 107Q92 133 102.50 160Q113 187 130 212Q137 222 148 213Q154 208 154 204Q154 199 151 195Q143 181 134 162Q125 143 116 123Q146 150 176.50 174Q207 198 241 219Q250 223 257 216Q261 208 254 198Q228 159 205 117.50Q182 76 171 45Q161 18 173.50 6.50Q186-5 218 11Q250 28 284 53.50Q318 79 342 105Q346 109 349 106.50Q352 104 347 99Z"  horiz-adv-x="264" vert-adv-y="1000"  />

      
      <glyph glyph-name="uni6f" unicode="&#x6f;" d="M339 143Q318 126 286 107.50Q254 89 228 81Q194 69 175 79Q169 68 162.50 57Q156 46 148 37Q125 8 102-4.50Q79-17 62-13Q45-8 39 11.50Q33 31 44 64Q50 82 62.50 101.50Q75 121 91.50 139Q108 157 126.50 171.50Q145 186 162 193Q177 199 188 199Q190 201 191.50 202Q193 203 194 204Q199 206 204.50 207Q210 208 217 209Q222 209 222 205Q223 202 220 194Q214 178 208 161.50Q202 145 198 131Q193 108 203.50 97Q214 86 237 93Q260 100 288.50 116Q317 132 335 149Q340 154 341.50 150Q343 146 339 143M185 186Q180 193 171 189Q162 185 151.50 175Q141 165 129.50 150Q118 135 109 119Q97 98 88 76.50Q79 55 75 40Q67 5 83.50-0.50Q100-6 126 25Q149 51 166 86Q154 103 167 131Q172 142 177 157Q182 172 185 186Z"  horiz-adv-x="227" vert-adv-y="1000"  />

      
      <glyph glyph-name="uni71" unicode="&#x71;" d="M336-4Q336-32 324-63Q309-100 286.50-131.50Q264-163 239-186Q206-216 167.50-243.50Q129-271 88.50-294Q48-317 8-334.50Q-32-352-68-362Q-88-368-102-368L-107-368Q-113-367-119.50-361Q-126-355-126-350Q-126-347-121-345Q-104-342-92-334.50Q-80-327-71-316Q-67-310-56-295Q-45-280-31.50-260Q-18-240-3-217Q12-194 24-172Q62-106 101.50-32Q141 42 179 102Q180 103 180 106L180 107L179 107Q178 107 175 104Q161 86 146 68.50Q131 51 116 36Q105 25 89.50 13.50Q74 2 59-2Q54-3 50.50-3.50Q47-4 45-4Q25-4 25 16Q25 27 29 36Q40 63 57.50 87Q75 111 93 130Q112 150 134.50 165.50Q157 181 175 189Q188 194 198.50 197Q209 200 221 202Q226 203 230 204Q234 205 236 209L250 237Q253 242 255.50 246Q258 250 263 252Q272 255 282 255Q291 255 291 249Q291 246 289 242.50Q287 239 285 234Q265 200 241 161Q217 122 193 83.50Q169 45 147 8.50Q125-28 110-57Q84-108 55-161.50Q26-215 3-257Q-5-271-12.50-281.50Q-20-292-33-300Q-41-305-50-310.50Q-59-316-66-323Q-69-326-69-327Q-69-329-66-329Q-65-329-64.50-328.50Q-64-328-62-328Q-46-324-24.50-316Q-3-308 20.50-298Q44-288 69.50-276Q95-264 119-252Q188-218 235.50-176.50Q283-135 307-75Q315-54 320-33.50Q325-13 325 5Q325 31 315 52Q305 73 283 86Q267 96 252 96Q249 96 241 94Q240 93 237 93Q235 93 235 95Q235 98 240 102Q245 106 255 106L261 106Q264 106 268 104Q298 93 317 64Q336 35 336-4M225 193Q225 194 223 194L220 194Q179 188 142 152Q116 127 94.50 94.50Q73 62 61 33Q57 24 57 15Q57 9 61 9Q68 9 80 18Q106 37 128 60.50Q150 84 168 107Q183 126 198.50 148Q214 170 224 188Q225 189 225 193Z"  horiz-adv-x="269" vert-adv-y="1000"  />

      
      <glyph glyph-name="uni72" unicode="&#x72;" d="M282 190Q277 179 273 189Q272 192 269 193.50Q266 195 263 196Q255 198 243 196Q231 194 218 189Q198 180 179.50 166.50Q161 153 144.50 137Q128 121 113.50 103Q99 85 87 68Q79 48 71 30Q63 12 56 1Q48-13 34-17Q22-21 16.50-17Q11-13 19 1Q37 28 66 65Q73 80 80 97.50Q87 115 93 132.50Q99 150 104 166Q109 182 112 194Q114 199 116.50 203Q119 207 124 208Q126 209 131 209Q136 209 138 210Q148 212 150 205.50Q152 199 147 190Q140 173 130.50 154.50Q121 136 108 110Q127 131 149 156.50Q171 182 193.50 202.50Q216 223 237.50 232.50Q259 242 277 230Q287 223 287.50 212Q288 201 282 190Z"  horiz-adv-x="227" vert-adv-y="1000"  />

      
      <glyph glyph-name="uni73" unicode="&#x73;" d="M207 229Q202 218 196 210Q192 205 189.50 207Q187 209 188 214Q189 227 175 230Q162 232 150.50 226.50Q139 221 135 204Q130 184 128 161Q126 138 124 117Q120 74 113 39.50Q106 5 86-27Q69-54 43-77.50Q17-101-12-115Q-41-130-74-136.50Q-107-143-127-137Q-140-133-148.50-114Q-157-95-161-78Q-162-73-159-72Q-156-71-154-76Q-147-97-130-107.50Q-113-118-90.50-120Q-68-122-44-116Q-20-110 0-98Q21-86 35-66.50Q49-47 59-23.50Q69 0 74.50 25.50Q80 51 83 75Q85 95 88 117.50Q91 140 93 155Q96 174 102 184.50Q108 195 116 206Q127 220 140.50 232Q154 244 166 250Q174 254 183 255.50Q192 257 199 251Q212 240 207 229Z"  horiz-adv-x="172" vert-adv-y="1000"  />

      
      <glyph glyph-name="uni74" unicode="&#x74;" d="M268 213Q269 208 267 207.50Q265 207 263 207Q238 207 214.50 206.50Q191 206 168 205Q145 166 127 129Q109 92 97 59Q93 48 92 39Q91 30 91 22Q91 11 99 6Q107 1 117 1Q128 0 140 5.50Q152 11 157 13Q164 15 172 19.50Q180 24 187.50 29Q195 34 200.50 37.50Q206 41 209 41Q218 43 212 37Q210 35 202 29Q194 23 190 21Q188 20 178 13.50Q168 7 153-1Q138-9 119-15.50Q100-22 79-22Q65-22 56-11.50Q47-1 49 17Q50 26 54 38Q58 50 63 63.50Q68 77 74.50 90.50Q81 104 87 115Q98 137 110.50 158.50Q123 180 136 203Q116 201 96.50 199.50Q77 198 58 195Q52 194 46.50 194.50Q41 195 37 200Q26 212 42 212Q56 213 68.50 213.50Q81 214 94 214L142 214Q166 255 189 299Q192 305 195.50 309Q199 313 205 314Q210 315 217.50 317.50Q225 320 231 320.50Q237 321 240 319.50Q243 318 238 312Q221 287 204.50 263Q188 239 173 214L263 214Q268 214 268 213Z"  horiz-adv-x="179" vert-adv-y="1000"  />

      
      <glyph glyph-name="uni76" unicode="&#x76;" d="M265 182Q265 173 262 164Q255 146 236.50 127.50Q218 109 198 94Q184 83 169.50 74Q155 65 141 54Q116 33 104 14Q96 2 84.50-3Q73-8 62-14Q56-16 57-16Q53-16 53-12Q53-9 54-8Q62 12 67 29.50Q72 47 77 67Q84 99 94.50 130Q105 161 121 189Q125 195 128.50 199.50Q132 204 139 207Q145 209 151.50 211Q158 213 164 216Q165 217 168 217Q172 217 172 214Q172 211 170 209Q162 203 155.50 191.50Q149 180 145 171Q131 141 120 110.50Q109 80 106 49L106 48Q106 44 109 44Q110 44 111 45Q129 61 148.50 73Q168 85 188 98Q199 106 210.50 115.50Q222 125 229 136Q239 150 239 164Q239 178 225 189Q223 191 223 193Q223 196 225.50 199.50Q228 203 231 207Q240 218 245 218Q247 218 248 217Q265 203 265 182Z"  horiz-adv-x="249" vert-adv-y="1000"  />

      
      <glyph glyph-name="uni77" unicode="&#x77;" d="M308 146Q300 116 280.50 82.50Q261 49 234 20Q218 3 202.50-4Q187-11 175.50-7.50Q164-4 158.50 9.50Q153 23 158 47Q161 61 163.50 76.50Q166 92 167 104Q168 120 162.50 122Q157 124 143 114Q120 97 97.50 73.50Q75 50 52 17Q49 12 44.50 11Q40 10 38 16Q33 33 42 50Q58 81 83.50 119Q109 157 134 190Q141 202 150 203Q159 205 167 203Q170 201 170 198Q170 195 167 191Q147 166 128 139Q109 112 96 86Q95 84 95 83.50Q95 83 97 85Q109 98 124.50 111Q140 124 152 135Q159 141 168 147Q177 153 183 155Q194 159 200 153Q206 147 204 136Q200 117 195 95Q190 73 190 51Q189 30 201 24Q213 18 230 33Q250 51 265 79.50Q280 108 284 137Q287 158 285.50 170.50Q284 183 273 194Q268 199 262 199Q258 199 257 201.50Q256 204 261 209Q270 217 282 223Q294 229 301 220Q311 206 312.50 186Q314 166 308 146Z"  horiz-adv-x="303" vert-adv-y="1000"  />

      
      <glyph glyph-name="uni79" unicode="&#x79;" d="M313 281Q317 263 310 248Q284 203 247.50 155.50Q211 108 175 63Q115-9 63.50-74Q12-139-27-199Q-46-228-64-259.50Q-82-291-95.50-322.50Q-109-354-117.50-384.50Q-126-415-126-443Q-127-485-106-504Q-85-523-43-525Q-22-526 5-520Q32-514 61-505Q90-496 118-487Q146-478 168-473Q200-465 220-467Q240-469 249-487Q252-493 249-503Q246-513 244-518Q241-525 238-524.50Q235-524 237-517Q239-510 238.50-502Q238-494 232-492Q221-488 205.50-489.50Q190-491 170-494Q153-497 132-502Q111-507 88-513Q65-519 41-524Q17-529-4-532Q-91-543-140-507Q-166-489-169-458Q-172-427-157-392Q-139-350-108.50-300.50Q-78-251-42.50-200Q-7-149 30-101Q67-53 99-14Q104-8 109-2Q114 4 119 10Q113 6 106.50 3.50Q100 1 93-1Q80-5 72.50 1Q65 7 68 20Q70 31 74.50 47Q79 63 84 74Q94 101 102.50 130Q111 159 114 179Q117 201 88 193Q64 187 42 172Q37 170 34.50 173.50Q32 177 38 180Q59 191 89 202Q119 213 143 218Q157 221 160 212.50Q163 204 157 189Q148 167 137.50 141Q127 115 121 95Q116 79 111.50 63Q107 47 108 36Q108 26 116 24.50Q124 23 132 29Q133 30 135 30Q199 111 239.50 175.50Q280 240 285 288Q288 319 268 340Q264 344 266.50 347Q269 350 274 345Q286 331 296.50 313.50Q307 296 313 281Z"  horiz-adv-x="247" vert-adv-y="1000"  />

      
      <glyph glyph-name="uni7a" unicode="&#x7a;" d="M560-104Q560-107 557-110Q529-133 501.50-142Q474-151 445-151Q412-151 366-140Q334-132 296-114.50Q258-97 224-74Q195-54 165.50-35Q136-16 106 2Q83-12 60-18Q37-24 17-24Q-25-24-50-2Q-57 3-59.50 9.50Q-62 16-62 22Q-62 37-45 48Q-23 60 5 60Q20 60 35 57Q84 47 126 25Q133 30 139.50 35.50Q146 41 152 46Q175 68 195 89Q215 110 241 139Q224 147 201 151Q178 155 157 155Q153 155 149.50 154.50Q146 154 142 154Q130 153 119.50 148Q109 143 104 137Q101 134 99 134Q97 134 97 137Q97 139 99 141Q106 148 113 159.50Q120 171 125 183Q128 191 134.50 193Q141 195 150 195Q154 195 157.50 194.50Q161 194 166 194Q190 192 215.50 185Q241 178 266 167Q277 179 286 189Q295 199 305 210Q307 212 308 212Q312 212 312 208Q312 205 310 203Q301 193 291.50 182.50Q282 172 272 161Q259 146 244 129.50Q229 113 214 96.50Q199 80 184.50 65.50Q170 51 158 40Q152 35 146.50 30.50Q141 26 135 21Q159 9 181.50-5Q204-19 227-33Q269-59 308-83Q347-107 384-125Q401-133 419-138Q437-143 455-143Q509-143 552-103L556-101Q560-101 560-104M97 7Q91 11 84 15Q77 19 69 23Q47 35 28 42.50Q9 50-10 50L-14 50Q-36 50-36 34Q-36 27-26 16Q-1-11 37-11Q55-11 77-3Q87 1 97 7Z"  horiz-adv-x="274" vert-adv-y="1000"  />

      
      <glyph glyph-name="uni7b" unicode="&#x7b;" d="M451 492Q449 489 445 489Q442 489 441 490Q435 492 429 492Q416 492 407 488Q395 483 382.50 472Q370 461 359 448Q341 428 319 398Q297 368 277 340Q250 302 226 278Q202 254 167 241Q163 240 163 237Q163 236 165 234Q188 222 188 196Q188 183 184 174Q174 141 154.50 106Q135 71 119 41Q105 15 97-8Q89-31 89-50Q89-68 97-80.50Q105-93 125-93Q131-93 131-97Q131-101 124-101Q89-101 68-78Q52-62 52-37Q52-12 69 17Q93 61 123 102.50Q153 144 171 184Q176 199 176 204Q176 226 144 232L139 232Q131 232 127.50 231Q124 230 119 228Q114 227 110 226.50Q106 226 103 226Q97 226 96 227Q91 229 91 234Q91 236 92 237Q93 238 94 240Q100 246 107 246Q113 246 115 245Q124 242 134 242Q157 242 177 256Q214 284 246 339Q253 350 262 366Q271 382 281.50 399Q292 416 302.50 431.50Q313 447 323 458Q340 478 359 485.50Q378 493 401 496Q409 497 418.50 498Q428 499 436 499L444 499Q451 499 451 494L451 492L451 492Z"  horiz-adv-x="265" vert-adv-y="1000"  />

      
      <glyph glyph-name="uni7c" unicode="&#x7c;" d="M148 750L178 750L178-250L148-250L148 750Z"  horiz-adv-x="222" vert-adv-y="1000"  />

      
      <glyph glyph-name="uni7d" unicode="&#x7d;" d="M343 429Q343 414 337 399Q329 380 318 361Q307 342 296 326Q285 309 273 291Q261 273 253 256Q249 249 249 240Q249 230 259 230Q266 230 268 231Q274 233 284 234.50Q294 236 302 237Q309 237 309 229Q309 223 305.50 218.50Q302 214 296 214Q288 214 281.50 213.50Q275 213 267 211Q261 209 255 205Q219 180 197 134Q187 114 176 92.50Q165 71 154 51Q143 31 131.50 13Q120-5 109-18Q97-32 80-46.50Q63-61 43.50-73.50Q24-86 3.50-94Q-17-102-36-102Q-41-102-41-99Q-41-97-35-95Q-5-90 19-72Q43-54 66-25Q78-10 89 7.50Q100 25 111 42Q119 56 130 75.50Q141 95 151 111Q171 142 197 169Q223 196 252 213Q256 216 256 218Q256 221 251 223Q230 233 230 258Q230 267 232.50 276.50Q235 286 239 294Q248 313 260.50 332Q273 351 284 370Q292 384 302.50 402.50Q313 421 318 438Q321 448 321 458Q321 483 295 488Q288 489 288 493Q288 498 294 498Q312 498 325 479.50Q338 461 341 446Q342 441 342.50 437Q343 433 343 429Z"  horiz-adv-x="265" vert-adv-y="1000"  />

      
      <glyph glyph-name="uni7e" unicode="&#x7e;" d="M400 154Q387 137 372 122Q357 107 331 107Q316 107 302.50 113Q289 119 275 126Q261 133 246 139Q231 145 212 145Q194 145 183 132Q172 119 166 104L146 124Q155 141 171 156Q187 171 215 171Q229 171 244.50 166Q260 161 276 154Q291 147 306 140.50Q321 134 332 134Q349 134 359.50 146.50Q370 159 380 174L400 154Z"  horiz-adv-x="400" vert-adv-y="1000"  />

      
      <glyph glyph-name="uni80" unicode="&#x80;" d="M559 304L555 305Q554 356 530 384Q506 412 458 412Q398 412 341 372.50Q284 333 232 258L362 258Q376 258 385 258Q394 258 401 257.50Q408 257 414.50 256.50Q421 256 430 255Q428 251 425 247Q422 243 418 239Q403 242 392.50 243Q382 244 357 246Q331 248 311 248.50Q291 249 265 249L226 249Q218 238 212 227Q206 216 200 205L343 205L366 205L383 205Q390 205 396 204.50Q402 204 411 203Q406 193 399 186Q386 189 372 190.50Q358 192 342 194Q305 197 265.50 196.50Q226 196 195 196Q175 153 167.50 126.50Q160 100 160 73Q160 35 186.50 13.50Q213-8 261-8Q312-8 357.50 10Q403 28 441 60L441 47Q407 17 357.50 0Q308-17 251-17Q116-17 116 92Q116 117 122.50 140.50Q129 164 144 196Q133 197 120 196.50Q107 196 96 196L100 208Q111 206 124 205.50Q137 205 148 205Q156 218 161 227.50Q166 237 174 249L115 249L119 261Q133 259 149.50 258.50Q166 258 180 258Q234 333 300.50 375.50Q367 418 459 420Q479 420 501 416.50Q523 413 542 404.50Q561 396 575 382Q589 368 594 347L559 304Z"  horiz-adv-x="461" vert-adv-y="1000"  />

      
      <glyph glyph-name="uni20AC" unicode="&#x20AC;" d="M559 304L555 305Q554 356 530 384Q506 412 458 412Q398 412 341 372.50Q284 333 232 258L362 258Q376 258 385 258Q394 258 401 257.50Q408 257 414.50 256.50Q421 256 430 255Q428 251 425 247Q422 243 418 239Q403 242 392.50 243Q382 244 357 246Q331 248 311 248.50Q291 249 265 249L226 249Q218 238 212 227Q206 216 200 205L343 205L366 205L383 205Q390 205 396 204.50Q402 204 411 203Q406 193 399 186Q386 189 372 190.50Q358 192 342 194Q305 197 265.50 196.50Q226 196 195 196Q175 153 167.50 126.50Q160 100 160 73Q160 35 186.50 13.50Q213-8 261-8Q312-8 357.50 10Q403 28 441 60L441 47Q407 17 357.50 0Q308-17 251-17Q116-17 116 92Q116 117 122.50 140.50Q129 164 144 196Q133 197 120 196.50Q107 196 96 196L100 208Q111 206 124 205.50Q137 205 148 205Q156 218 161 227.50Q166 237 174 249L115 249L119 261Q133 259 149.50 258.50Q166 258 180 258Q234 333 300.50 375.50Q367 418 459 420Q479 420 501 416.50Q523 413 542 404.50Q561 396 575 382Q589 368 594 347L559 304Z"  horiz-adv-x="461" vert-adv-y="1000"  />

      
      <glyph glyph-name="uni201A" unicode="&#x201A;" d="M169 90Q169 76 164 58Q159 44 152.50 29Q146 14 138 0Q124-23 103.50-48.50Q83-74 64-94Q62-96 59-96Q54-96 54-92Q54-90 56-88Q77-69 96.50-44Q116-19 127 1Q135 15 137.50 29.50Q140 44 140 58Q140 71 139 74Q136 95 125 103Q121 106 121 110Q121 109 123 115Q130 125 142 137Q145 140 148 140Q151 140 154 137Q169 117 169 90Z"  horiz-adv-x="191" vert-adv-y="1000"  />

      
      <glyph glyph-name="uni0192" unicode="&#x0192;" d="M417 463Q417 457 414 453Q412 450 410 447.50Q408 445 406 442Q403 439 400 439Q396 439 392 442Q386 445 374.50 446.50Q363 448 354 448Q333 448 316 437Q299 426 287 408Q274 388 264 368.50Q254 349 240 318Q227 291 215 264Q203 237 190 211Q216 213 244.50 216Q273 219 302 221L303 222Q308 222 308 219Q308 218 303 216Q278 211 246.50 205Q215 199 189 195L182 194Q171 172 161 151.50Q151 131 140 111Q117 68 95.50 30Q74-8 52-40Q33-69 10.50-94Q-12-119-37-135Q-81-164-119-164Q-142-164-164-151Q-177-142-177-128L-177-125Q-175-115-167-111Q-164-110-155-101Q-151-97-148-97Q-144-97-144-104Q-144-123-126-133.50Q-108-144-91-144L-86-144Q-73-143-60.50-138.50Q-48-134-37-127Q-3-104 26-50Q32-38 41.50-19.50Q51-1 62 21Q73 43 85 66.50Q97 90 108 112Q116 129 125 149Q134 169 145 190Q128 188 112 186Q96 184 82 182L80 182Q71 182 71 187Q71 190 75 193Q83 200 86 205Q88 210 94 210Q95 210 101 208Q103 207 114 207L127 207Q133 207 139.50 208Q146 209 154 209Q169 239 183.50 267Q198 295 210 314Q229 345 251.50 376.50Q274 408 294 429Q310 446 328 457.50Q346 469 360 473Q378 478 389 478Q401 478 408 474Q417 469 417 463Z"  horiz-adv-x="207" vert-adv-y="1000"  />

      
      <glyph glyph-name="uni201E" unicode="&#x201E;" d="M234 90Q234 70 230 58Q225 44 218.50 29Q212 14 204 0Q190-23 169.50-48.50Q149-74 130-94Q128-96 125-96Q120-96 120-92Q120-90 122-88Q143-69 162.50-43Q182-17 192 1Q200 15 203.50 30.50Q207 46 207 60Q207 71 206 74Q201 97 191 103Q187 106 187 110Q187 109 189 115Q196 125 208 137Q211 140 214 140Q217 140 220 137Q228 127 231 115Q234 103 234 90M151 90Q151 70 147 58Q142 44 135.50 29Q129 14 121 0Q107-23 86.50-48.50Q66-74 47-94Q45-96 42-96Q37-96 37-92Q37-90 39-88Q59-71 78.50-45Q98-19 109 1Q116 15 120 30.50Q124 46 124 60Q124 71 123 74Q121 84 117 92Q113 100 108 103Q104 106 104 110Q104 109 106 115Q113 125 125 137Q128 140 131 140Q134 140 137 137Q145 127 148 115Q151 103 151 90Z"  horiz-adv-x="258" vert-adv-y="1000"  />

      
      <glyph glyph-name="uni2026" unicode="&#x2026;" d="M505 44Q505 38 504 36Q499 23 489 12Q479 1 468-4Q467-5 461-5Q454-5 448.50-1.50Q443 2 443 10L443 13Q443 30 456.50 45.50Q470 61 487 61Q492 61 493 60Q505 57 505 44M326 44Q326 38 325 36Q320 23 310 12Q300 1 289-4Q288-5 282-5Q275-5 269.50-1.50Q264 2 264 10L264 13Q264 30 277.50 45.50Q291 61 308 61Q313 61 314 60Q326 57 326 44M152 44Q152 44 150 36Q145 23 135 12Q125 1 114-4Q113-5 107-5Q100-5 94.50-1.50Q89 2 89 10L89 13Q89 30 102.50 45.50Q116 61 133 61Q138 61 139 60Q152 56 152 44Z"  horiz-adv-x="579" vert-adv-y="1000"  />

      
      <glyph glyph-name="uni2020" unicode="&#x2020;" d="M351 257Q351 251 348 245Q346 240 345.50 239Q345 238 343 235Q340 230 335 230Q330 230 329 231Q307 238 284.50 243Q262 248 239 250Q224 224 207.50 192Q191 160 174.50 126.50Q158 93 142.50 58.50Q127 24 114-7Q111-15 106.50-22Q102-29 96-32Q92-34 85-37.50Q78-41 73-41Q68-41 65-34Q63-29 60.50-23Q58-17 58-12Q58-3 66 8Q102 64 143 121.50Q184 179 225 251L213 251Q203 251 193 250Q183 249 173 247Q156 244 140 239Q131 236 122 236Q119 236 111 238Q104 241 104 249Q104 254 105 255Q109 264 118 273Q122 277 132 277Q138 277 140 276Q148 274 158 271.50Q168 269 177 267Q197 263 222 263L232 263Q244 286 256 309Q268 332 278 355Q289 379 298 400Q307 421 318 441Q322 450 332 450Q336 450 341 447Q349 442 349 431Q349 423 345 416Q334 397 304.50 355.50Q275 314 247 263Q266 264 284.50 265Q303 266 318 268Q322 268 325 268.50Q328 269 332 269Q340 269 346 266Q351 263 351 257Z"  horiz-adv-x="265" vert-adv-y="1000"  />

      
      <glyph glyph-name="uni2021" unicode="&#x2021;" d="M352 257Q352 251 349 245Q347 240 346.50 239Q346 238 344 235Q341 230 335 230Q330 230 329 231Q307 238 285 243Q263 248 240 250Q229 231 216 210.50Q203 190 192 170Q214 171 236.50 173Q259 175 278 177Q282 177 285 177.50Q288 178 292 178Q301 178 307 175Q312 172 312 164Q312 160 310 154Q308 149 307.50 148Q307 147 305 144Q301 137 293 137Q292 137 284 139Q258 148 234.50 152.50Q211 157 185 157Q182 152 179 146.50Q176 141 174 136Q156 100 142.50 64Q129 28 115-7Q108-26 96-32Q92-34 87.50-36Q83-38 78-40Q77-41 74-41Q69-41 66-34Q64-29 62-24Q60-19 59-14L59-12Q59-3 67 8Q90 42 113 72.50Q136 103 162 143L171 157Q162 157 151.50 156.50Q141 156 133 154Q123 152 113 150.50Q103 149 97 147Q88 144 79 144Q67 144 63 147Q56 150 56 154Q56 153 58 159Q62 166 66 173.50Q70 181 85 181Q88 181 91 180.50Q94 180 96 180Q106 178 118 177Q130 176 139 174Q147 172 158.50 171.50Q170 171 179 170Q191 190 202.50 210.50Q214 231 226 251L214 251Q204 251 194 250Q184 249 174 247Q157 244 141 239Q132 236 123 236Q119 236 111 238Q104 241 104 249Q104 249 106 255Q110 264 119 273Q123 277 132 277Q139 277 141 276Q149 274 159 271.50Q169 269 178 267Q188 265 201 264Q214 263 222 263L223 263L233 263Q258 305 278 355Q289 379 298.50 400Q308 421 319 441Q323 450 332 450Q336 450 341 447Q350 441 350 431Q350 423 346 416Q341 407 330 390.50Q319 374 305.50 353.50Q292 333 277 310Q262 287 248 263Q267 264 285.50 265Q304 266 319 268Q323 268 326 268.50Q329 269 333 269Q341 269 347 266Q352 263 352 257Z"  horiz-adv-x="265" vert-adv-y="1000"  />

      
      <glyph glyph-name="uni02C6" unicode="&#x02C6;" d="M180 295Q180 283 176 280Q172 277 166 271Q163 268 160 268Q157 268 157 275Q157 295 156 320Q155 345 154 365Q154 371 150 371Q148 371 145 368Q126 351 105.50 330Q85 309 68 290Q59 279 55 279Q54 279 53 280Q51 282 51 284Q51 289 60 297Q77 312 97 331Q117 350 134 367Q142 375 150 382.50Q158 390 166 395Q172 397 171 397Q175 397 175 392Q176 364 178 338Q180 312 180 295Z"  horiz-adv-x="230" vert-adv-y="1000"  />

      
      <glyph glyph-name="uni2030" unicode="&#x2030;" d="M834 217Q834 213 831 213Q827 212 819 211.50Q811 211 803 210Q797 210 797 206L797 205Q798 205 798 204Q801 199 803 194Q805 189 805 181L805 176Q803 160 799 142.50Q795 125 787 110Q774 83 752.50 55.50Q731 28 708 10Q682-11 651-11Q636-11 624.50-0.50Q613 10 611 27L611 35Q611 70 629 105Q644 133 664 158Q684 183 711 197Q714 198 714 201Q714 203 710 203L709 203Q677 201 648.50 199Q620 197 595 197Q586 197 586 188Q586 182 587 181Q588 178 588 168Q588 147 577 116Q554 56 514 22Q495 6 477-1.50Q459-9 444-9Q424-9 411.50 3.50Q399 16 399 39Q399 53 405 73Q415 100 431.50 125Q448 150 468 170Q422 141 371.50 107.50Q321 74 269.50 38Q218 2 167.50-35.50Q117-73 71-110Q67-114 62-114L61-114Q58-114 58-110Q58-108 59-107Q61-101 61-100Q61-95 60-94L60-92Q60-85 67-78Q124-25 181 29.50Q238 84 290.50 137.50Q343 191 388.50 242.50Q434 294 469 342Q486 365 499.50 386Q513 407 518 425Q519 430 519.50 434Q520 438 520 440Q520 449 516.50 457Q513 465 503 470Q487 480 462 480Q447 480 431 477Q406 473 383 466.50Q360 460 335 456Q333 455 326 455Q314 455 308 461Q292 453 281 440.50Q270 428 263 419Q246 394 233 365Q220 336 217 309L217 301Q217 269 241 269Q252 269 267 278Q285 289 300 306Q315 323 325.50 343Q336 363 341.50 384Q347 405 347 424L347 426Q347 434 344.50 439Q342 444 339 447Q338 448 338 451Q338 454 341 454L343 454Q346 452 353.50 450Q361 448 365 447Q371 445 375 435Q379 426 379 417Q379 415 378.50 411Q378 407 377 402Q366 351 327 309Q304 285 278.50 271Q253 257 229 257Q214 257 202 262Q180 272 180 299L180 307Q187 366 239 424Q250 435 268.50 447Q287 459 304 465Q301 469 301 478Q301 490 305 499Q307 504 310 504Q314 504 314 499Q315 489 335 489Q358 489 384.50 493Q411 497 434 499Q439 499 443 499.50Q447 500 452 500Q485 500 508 485.50Q531 471 531 442Q531 434 528 425Q521 404 507.50 382Q494 360 477 337Q411 247 325.50 155.50Q240 64 149-30L149-31Q200 4 242.50 34Q285 64 325.50 91Q366 118 407 143.50Q448 169 496 195Q501 198 506 201.50Q511 205 514 205Q517 205 517 201Q517 197 512 194Q506 191 497 182Q488 173 479 162Q465 146 453 118Q441 90 435 62Q434 57 433.50 52Q433 47 433 42Q433 25 440.50 15Q448 5 460 5Q478 5 502 29Q554 81 554 157L554 166Q553 184 544.50 193Q536 202 530 204Q525 206 525 210Q525 213 530 215Q536 217 542.50 221Q549 225 551 227Q552 228 555 228Q558 228 563 225Q572 217 587 214.50Q602 212 617 210Q620 209 629 209L644 209Q664 209 688 210Q712 211 733 213Q738 214 745 214.50Q752 215 755 216Q758 217 772 217L776 217Q791 217 803 218Q815 219 830 220L831 220Q834 220 834 217M771 179Q771 190 765.50 197.50Q760 205 749 205Q744 205 742 204Q732 202 719.50 191.50Q707 181 698 171Q692 164 684.50 153Q677 142 672 133Q662 115 654 91.50Q646 68 642 47Q641 44 641 38L641 31Q641 2 667 2Q682 2 696 14Q728 38 749.50 83Q771 128 771 179Z"  horiz-adv-x="829" vert-adv-y="1000"  />

      
      <glyph glyph-name="uni0160" unicode="&#x0160;" d="M659 641Q659 635 651 629Q647 626 630.50 610Q614 594 595 576Q576 558 559.50 543.50Q543 529 540 529Q535 529 535 535Q534 560 531.50 584Q529 608 528 633Q528 641 533 646Q535 648 541.50 652.50Q548 657 550 657Q554 657 554 651L554 608Q554 597 554.50 585Q555 573 556 561Q556 555 559 555Q562 555 565 558Q584 574 605.50 596.50Q627 619 641 636Q649 647 654 647Q659 647 659 641M657 478Q657 474 655 472Q641 455 626 435Q611 415 601 400Q592 386 583.50 370.50Q575 355 569 338Q559 315 559 292Q559 289 559.50 284.50Q560 280 562 276L562 275Q562 274 560 274Q555 274 553 275Q538 279 528 292Q526 298 526 300Q526 306 529 311Q534 322 543 335.50Q552 349 559 359Q567 370 571.50 380.50Q576 391 576 408L576 410Q576 438 540 452Q530 456 517.50 457Q505 458 495 458Q481 458 461.50 455.50Q442 453 427 448Q397 438 370.50 418Q344 398 329 373Q316 353 316 333Q316 312 333 294Q350 276 381 259Q408 243 434.50 224Q461 205 479 185Q493 169 502.50 149.50Q512 130 512 107Q512 50 485 4Q458-42 413-73.50Q368-105 309-121.50Q250-138 187-137Q154-137 122.50-129Q91-121 67-104Q43-87 28-60.50Q13-34 13 3Q13 48 39 89Q40 92 44 92Q47 92 47 88Q47 84 46 83Q36 66 32 48.50Q28 31 28 12Q28-21 44.50-42Q61-63 85.50-76Q110-89 139-94Q168-99 194-99Q218-99 249.50-94.50Q281-90 314.50-80Q348-70 380.50-54.50Q413-39 439-18Q465 3 481 30Q497 57 498 91Q498 114 487 132Q476 150 457 163Q424 186 384.50 206Q345 226 315 249Q292 266 281 283Q270 300 270 322Q270 344 284.50 364.50Q299 385 322 402Q362 431 413 451Q464 471 513 471Q585 471 585 419Q585 415 584.50 411.50Q584 408 584 403L584 402Q584 400 587 403Q598 420 613 443.50Q628 467 639 484Q640 487 645 487Q648 487 652.50 483Q657 479 657 478Z"  horiz-adv-x="582" vert-adv-y="1000"  />

      
      <glyph glyph-name="uni2039" unicode="&#x2039;" d="M298 228Q296 222 292 221Q290 219 287 217.50Q284 216 282 214Q270 205 255 193.50Q240 182 223.50 169.50Q207 157 191 144.50Q175 132 161 121Q152 113 152 107Q152 107 154 97Q160 77 170 45.50Q180 14 191-10L193-16Q193-17 192-18Q191-19 186-19Q182-20 176.50-21Q171-22 167-24Q166-25 163-25Q158-25 156-17Q150 5 141.50 35.50Q133 66 123 96L123 98Q123 103 130 107Q138 112 148 120.50Q158 129 168 137Q198 161 230.50 187.50Q263 214 291 234Q292 235 294 235Q298 235 298 230L298 228L298 228Z"  horiz-adv-x="275" vert-adv-y="1000"  />

      
      <glyph glyph-name="uni0152" unicode="&#x0152;" d="M1239 266Q1232 180 1186 120.50Q1140 61 1065 14Q1023-11 977.50-31Q932-51 884-63Q862-69 839-71.50Q816-74 793-74Q755-74 723-67Q683-58 657.50-34.50Q632-11 618 27Q615 34 613.50 47.50Q612 61 612 78Q612 95 614 112.50Q616 130 621 144Q605 129 589 114.50Q573 100 553 84Q520 58 481.50 35.50Q443 13 401-3.50Q359-20 315.50-29.50Q272-39 230-39Q190-39 156-28.50Q122-18 96.50 1Q71 20 56.50 46Q42 72 41 103Q40 139 53.50 173Q67 207 87 237Q107 267 129.50 292Q152 317 170 335Q194 358 225 383Q256 408 291 431.50Q326 455 363 474.50Q400 494 437 506L439 506Q442 506 442 504L442 503Q442 500 439 499Q401 487 364 467.50Q327 448 294 424Q261 400 233 373Q205 346 184 318Q168 297 152 272Q136 247 123 220Q110 193 102 164.50Q94 136 95 108Q96 79 109 55.50Q122 32 144 15Q166-2 194.50-11.50Q223-21 255-21Q292-21 331-12Q370-3 407.50 13Q445 29 480 49.50Q515 70 544 93Q578 120 603 150Q628 180 646 207Q664 234 675.50 256.50Q687 279 692 293Q698 312 704.50 335Q711 358 711 387Q711 425 697.50 451.50Q684 478 656 498Q642 509 622.50 513.50Q603 518 582 518Q556 518 532.50 511.50Q509 505 493 492Q478 479 469 464.50Q460 450 460 435Q460 408 493 392Q513 384 531.50 381Q550 378 571 378Q580 378 594 378Q608 378 621 379Q636 380 652 381L655 373Q632 371 610.50 370Q589 369 572 367Q558 366 544.50 365.50Q531 365 519 365Q469 365 443 375Q413 387 413 415Q413 438 436 461Q471 495 510.50 513Q550 531 598 531Q603 531 607 530.50Q611 530 616 530Q662 526 695 508.50Q728 491 747 446Q752 435 753.50 422Q755 409 756 393Q757 380 753 363.50Q749 347 743 330Q737 313 730 297.50Q723 282 718 272Q730 282 746.50 290.50Q763 299 780 305.50Q797 312 813.50 315.50Q830 319 842 319L851 319Q857 319 863 321Q865 321 859 327Q845 341 845 372Q845 388 849 400Q857 427 877 456Q897 485 921 501Q944 516 971.50 526.50Q999 537 1025 538L1029 538Q1067 538 1084 515Q1093 503 1093 489Q1093 473 1078 463Q1067 455 1059.50 444.50Q1052 434 1050 425Q1048 420 1046 420Q1043 420 1043 424L1043 426Q1045 435 1046 445.50Q1047 456 1047 465L1047 473Q1046 483 1041.50 492Q1037 501 1031 506Q1018 519 992 519Q988 519 984 518.50Q980 518 975 517Q961 514 946 506.50Q931 499 918 488Q905 477 895.50 463Q886 449 883 433Q880 419 880 405Q880 383 888.50 362Q897 341 918 325Q926 320 932 320Q938 320 938 316Q938 313 934 312Q921 307 916 300Q914 298 910 298Q905 298 904 299Q889 306 864 306Q822 305 785 291Q748 277 720 251.50Q692 226 674.50 190.50Q657 155 654 110Q650 59 671.50 24.50Q693-10 728-29Q751-42 779.50-47.50Q808-53 838-53Q864-53 889.50-49Q915-45 937-37Q997-16 1045 20Q1093 56 1135 101Q1156 123 1172 143Q1188 163 1199.50 183Q1211 203 1219 225.50Q1227 248 1232 276Q1233 278 1232.50 281Q1232 284 1232 286Q1232 302 1224 316L1222 320Q1222 322 1224 322Q1223 322 1229 320Q1235 315 1237 305Q1239 295 1239 283L1239 266L1239 266Z"  horiz-adv-x="1175" vert-adv-y="1000"  />

      
      <glyph glyph-name="uni8e" unicode="&#x8e;" d="M659 646Q659 640 651 634Q632 618 612.50 599.50Q593 581 576 564Q568 556 559.50 548.50Q551 541 544 536Q543 535 540 535Q535 535 535 540Q534 568 531 592.50Q528 617 528 636L528 639Q528 646 533 651Q537 654 540 656Q543 658 545 660Q548 663 551 663Q554 663 554 656L554 613Q554 602 554.50 590Q555 578 556 566Q556 560 560 560Q562 560 565 563Q584 579 605.50 601.50Q627 624 641 641Q650 653 654 653Q655 653 657 651Q659 645 659 646M964 62Q961 16 934-17Q914-45 886-60.50Q858-76 827-84Q791-93 750-93Q696-93 642.50-79.50Q589-66 535-47.50Q481-29 426.50-11Q372 7 318 16Q298 19 278 22Q258 25 238 25Q217 25 198.50 19Q180 13 163-2Q158-5 150-8Q142-11 137-13Q136-13 135.50-13.50Q135-14 134-14Q128-11 135-4Q150 7 163 19Q176 31 190 43Q198 51 213.50 53.50Q229 56 240 56Q251 58 263 65Q317 101 371.50 140Q426 179 483 221Q476 221 475 222Q464 225 461 235Q459 243 459 242Q461 249 462 250Q463 254 466 254Q465 254 471 252Q474 248 485 245.50Q496 243 509 241Q563 283 614 324.50Q665 366 710 409Q713 412 713 415Q713 418 708 420Q660 440 607.50 451.50Q555 463 504 471Q491 473 478.50 474Q466 475 454 476Q444 477 434.50 477.50Q425 478 416 477Q404 477 393 475.50Q382 474 371 472Q340 465 318.50 445Q297 425 292 405Q292 401 286 401Q283 401 283 405L283 406Q290 430 311 449Q332 468 359 479Q388 491 420 496Q452 501 487 500Q519 500 550 496.50Q581 493 613 487Q656 479 696.50 468.50Q737 458 760 451Q765 449 763 447Q763 444 760 441Q728 412 691 378Q654 344 622 318Q600 300 575 280Q550 260 522 239Q529 238 536 237.50Q543 237 551 236Q568 234 587.50 233.50Q607 233 626 233Q633 232 638.50 232.50Q644 233 650 232Q667 230 682.50 228Q698 226 711 224Q717 223 715 219Q715 215 709 215L707 215Q694 216 681 218.50Q668 221 654 223Q645 223 643 224Q614 225 583.50 223Q553 221 533 219Q513 217 497 219L496 219Q445 180 388.50 139.50Q332 99 275 61Q272 58 272 57Q272 56 275 56L276 56Q279 55 289 55Q351 50 411.50 34.50Q472 19 532 2Q592-15 652-30Q712-45 775-49Q784-50 792.50-50.50Q801-51 809-50Q830-50 845-47Q896-38 925-7Q954 24 956 64Q959 96 944 128Q943 129 943 131Q943 136 948 136Q952 136 953 132Q967 95 964 62Z"  horiz-adv-x="970" vert-adv-y="1000"  />

      
      <glyph glyph-name="uni017D" unicode="&#x017D;" d="M659 646Q659 640 651 634Q632 618 612.50 599.50Q593 581 576 564Q568 556 559.50 548.50Q551 541 544 536Q543 535 540 535Q535 535 535 540Q534 568 531 592.50Q528 617 528 636L528 639Q528 646 533 651Q537 654 540 656Q543 658 545 660Q548 663 551 663Q554 663 554 656L554 613Q554 602 554.50 590Q555 578 556 566Q556 560 560 560Q562 560 565 563Q584 579 605.50 601.50Q627 624 641 641Q650 653 654 653Q655 653 657 651Q659 645 659 646M964 62Q961 16 934-17Q914-45 886-60.50Q858-76 827-84Q791-93 750-93Q696-93 642.50-79.50Q589-66 535-47.50Q481-29 426.50-11Q372 7 318 16Q298 19 278 22Q258 25 238 25Q217 25 198.50 19Q180 13 163-2Q158-5 150-8Q142-11 137-13Q136-13 135.50-13.50Q135-14 134-14Q128-11 135-4Q150 7 163 19Q176 31 190 43Q198 51 213.50 53.50Q229 56 240 56Q251 58 263 65Q317 101 371.50 140Q426 179 483 221Q476 221 475 222Q464 225 461 235Q459 243 459 242Q461 249 462 250Q463 254 466 254Q465 254 471 252Q474 248 485 245.50Q496 243 509 241Q563 283 614 324.50Q665 366 710 409Q713 412 713 415Q713 418 708 420Q660 440 607.50 451.50Q555 463 504 471Q491 473 478.50 474Q466 475 454 476Q444 477 434.50 477.50Q425 478 416 477Q404 477 393 475.50Q382 474 371 472Q340 465 318.50 445Q297 425 292 405Q292 401 286 401Q283 401 283 405L283 406Q290 430 311 449Q332 468 359 479Q388 491 420 496Q452 501 487 500Q519 500 550 496.50Q581 493 613 487Q656 479 696.50 468.50Q737 458 760 451Q765 449 763 447Q763 444 760 441Q728 412 691 378Q654 344 622 318Q600 300 575 280Q550 260 522 239Q529 238 536 237.50Q543 237 551 236Q568 234 587.50 233.50Q607 233 626 233Q633 232 638.50 232.50Q644 233 650 232Q667 230 682.50 228Q698 226 711 224Q717 223 715 219Q715 215 709 215L707 215Q694 216 681 218.50Q668 221 654 223Q645 223 643 224Q614 225 583.50 223Q553 221 533 219Q513 217 497 219L496 219Q445 180 388.50 139.50Q332 99 275 61Q272 58 272 57Q272 56 275 56L276 56Q279 55 289 55Q351 50 411.50 34.50Q472 19 532 2Q592-15 652-30Q712-45 775-49Q784-50 792.50-50.50Q801-51 809-50Q830-50 845-47Q896-38 925-7Q954 24 956 64Q959 96 944 128Q943 129 943 131Q943 136 948 136Q952 136 953 132Q967 95 964 62Z"  horiz-adv-x="970" vert-adv-y="1000"  />

      
      <glyph glyph-name="uni2018" unicode="&#x2018;" d="M296 455Q296 453 294 451Q273 432 253.50 407Q234 382 223 362Q215 348 212 333.50Q209 319 209 305Q209 300 209.50 296.50Q210 293 211 289Q214 268 225 260Q228 258 228 253Q228 249 227 248Q219 237 208 226Q205 223 201 223Q199 223 196 226Q181 245 181 273Q181 287 186 305Q191 319 197.50 334Q204 349 212 363Q226 386 246.50 411.50Q267 437 286 457Q288 459 291 459Q296 459 296 455Z"  horiz-adv-x="210" vert-adv-y="1000"  />

      
      <glyph glyph-name="uni2019" unicode="&#x2019;" d="M271 409Q271 395 266 377Q261 363 254.50 348Q248 333 240 319Q226 296 205.50 270.50Q185 245 166 225Q164 223 161 223Q156 223 156 227Q156 229 158 231Q179 250 198.50 275Q218 300 229 320Q237 334 239.50 348.50Q242 363 242 377Q242 390 241 393Q238 414 227 422Q223 425 223 429Q223 428 225 434Q232 444 244 456Q247 459 250 459Q253 459 256 456Q271 436 271 409Z"  horiz-adv-x="210" vert-adv-y="1000"  />

      
      <glyph glyph-name="uni201C" unicode="&#x201C;" d="M343 445Q343 443 341 441Q321 424 301 398Q281 372 270 352Q263 338 259 322.50Q255 307 255 293Q255 282 256 279Q258 269 262.50 261Q267 253 272 250Q275 248 275 243Q275 239 274 238Q266 227 255 216Q252 213 248 213Q246 213 243 216Q228 235 228 263Q228 277 233 295Q238 309 244.50 324Q251 339 259 353Q273 376 293.50 401.50Q314 427 333 447Q335 449 338 449Q343 449 343 445M260 445Q260 443 258 441Q237 422 217 396Q197 370 187 352Q179 338 176 322.50Q173 307 173 293Q173 282 174 279Q179 256 189 250Q192 248 192 243Q192 239 191 238Q183 227 172 216Q169 213 165 213Q163 213 160 216Q145 235 145 263Q145 277 150 295Q155 309 161.50 324Q168 339 176 353Q190 376 210.50 401.50Q231 427 250 447Q252 449 255 449Q260 449 260 445Z"  horiz-adv-x="258" vert-adv-y="1000"  />

      
      <glyph glyph-name="uni201D" unicode="&#x201D;" d="M335 409Q335 395 330 377Q325 363 318.50 348Q312 333 304 319Q290 296 269.50 270.50Q249 245 230 225Q228 223 225 223Q220 223 220 227Q220 229 222 231Q244 251 263 275Q282 299 293 320Q301 335 304 349.50Q307 364 307 378Q307 390 306 393Q301 416 291 422Q287 425 287 429Q287 428 289 434Q296 444 308 456Q311 459 314 459Q317 459 320 456Q335 436 335 409M252 409Q252 395 247 377Q242 363 235.50 348Q229 333 221 319Q207 296 186.50 270.50Q166 245 147 225Q145 223 142 223Q137 223 137 227Q137 229 139 231Q159 251 179 275.50Q199 300 210 320Q218 334 221 349.50Q224 365 224 379Q224 390 223 393Q218 416 208 422Q204 425 204 429Q204 428 206 434Q213 444 225 456Q228 459 231 459Q234 459 237 456Q252 436 252 409Z"  horiz-adv-x="258" vert-adv-y="1000"  />

      
      <glyph glyph-name="uni2022" unicode="&#x2022;" d="M240 346Q240 382 253.50 413.50Q267 445 290.50 468.50Q314 492 345.50 505.50Q377 519 413 519Q449 519 480.50 505.50Q512 492 535.50 468.50Q559 445 572.50 413.50Q586 382 586 346Q586 310 572.50 278.50Q559 247 535.50 223.50Q512 200 480.50 186.50Q449 173 413 173Q377 173 345.50 186.50Q314 200 290.50 223.50Q267 247 253.50 278.50Q240 310 240 346Z"  horiz-adv-x="500" vert-adv-y="1000"  />

      
      <glyph glyph-name="uni2013" unicode="&#x2013;" d="M0 127L0 142L500 142L500 127L0 127Z"  horiz-adv-x="500" vert-adv-y="1000"  />

      
      <glyph glyph-name="uni2014" unicode="&#x2014;" d="M870 136Q870 128 857 128L856 128Q839 128 820 128.50Q801 129 781 129L711 129Q663 129 605 128.50Q547 128 483 128Q419 128 361 127.50Q303 127 255 127L185 127L140 127Q130 127 130 134Q130 142 142 142L143 142Q172 142 204.50 141.50Q237 141 272 141L346 141L454 141Q514 141 578 141.50Q642 142 699 142Q727 142 753 142Q779 142 799 142.50Q819 143 832.50 143Q846 143 850 143Q870 143 870 136Z"  horiz-adv-x="1000" vert-adv-y="1000"  />

      
      <glyph glyph-name="uni02DC" unicode="&#x02DC;" d="M226 359Q226 358 225.50 358Q225 358 225 357Q223 349 220.50 341Q218 333 213 325Q190 295 165 295Q149 295 133 308Q119 320 112.50 326.50Q106 333 98 340Q93 344 87.50 347Q82 350 75 350Q64 350 51 340Q41 332 32 322Q23 312 17 304Q12 299 10 299Q7 299 7 302Q7 305 11 310Q19 321 34 335Q49 349 63 360Q76 370 89 370Q102 370 114 358Q122 350 133.50 338.50Q145 327 153 322Q166 313 178 313Q196 313 208 330Q216 341 216 357Q216 364 222 364Q226 364 226 359Z"  horiz-adv-x="230" vert-adv-y="1000"  />

      
      <glyph glyph-name="uni2122" unicode="&#x2122;" d="M542 403L534 376Q532 369 530 361.50Q528 354 526 346Q524 337 521.50 327Q519 317 517 307Q515 298 513.50 289Q512 280 510 272Q508 261 506.50 251.50Q505 242 503 234Q492 232 482 228L485 242L493 276L501 310Q503 316 505 325.50Q507 335 510 348L522 393L499 370Q491 362 481.50 352Q472 342 462.50 332Q453 322 445.50 313.50Q438 305 434 299Q422 284 409.50 269Q397 254 386 238Q384 238 377 233.50Q370 229 368 228Q369 235 369.50 239.50Q370 244 371 248.50Q372 253 372.50 259.50Q373 266 374 278L379 322L383 371L385 391Q376 382 371.50 376.50Q367 371 356 359L323 322Q309 305 290 283Q273 262 266 253Q259 244 249 230Q244 228 239.50 227Q235 226 230 224L246 243L283 286L318 325L350 361Q356 368 362.50 375.50Q369 383 377 394Q379 398 382.50 401.50Q386 405 390 410Q395 412 399 413Q403 414 405 416L402 386Q400 367 398 351.50Q396 336 394 324Q394 320 393 309.50Q392 299 390 280L388 259Q402 276 411.50 287Q421 298 434 312Q441 319 449.50 328Q458 337 466 345.50Q474 354 481 361.50Q488 369 493 374Q504 386 511 393.50Q518 401 521 404L527 410Q529 411 537 413.50Q545 416 546 417L542 403M312 406Q306 408 298 408Q289 408 276 407.50Q263 407 252 405Q247 399 246 395Q238 380 234 373.50Q230 367 222 352Q217 343 207 324Q197 305 191 294Q183 280 176 265.50Q169 251 162 236L158 227Q152 226 148 225.50Q144 225 142 225Q141 225 133 223Q137 229 140 233Q143 237 145 242Q154 256 162 271Q170 286 178 301Q186 315 193 330Q200 345 208 359Q213 368 217 376.50Q221 385 225 394L230 405Q221 403 212 402.50Q203 402 194 400Q186 398 179.50 397.50Q173 397 165 395Q161 394 157 393.50Q153 393 148 391L157 404Q162 405 165.50 405.50Q169 406 173 407Q189 409 205.50 410Q222 411 238 412L280 415L315 417L321 417L312 406Z"  horiz-adv-x="431" vert-adv-y="1000"  />

      
      <glyph glyph-name="uni0161" unicode="&#x0161;" d="M263 386Q263 380 255 374Q236 358 216.50 339.50Q197 321 180 304Q172 296 163.50 288.50Q155 281 148 276Q147 275 144 275Q139 275 139 280Q138 308 135.50 332.50Q133 357 132 376L132 379Q132 386 137 391Q141 394 144 396Q147 398 149 400Q152 403 155 403Q158 403 158 396L158 353Q158 342 158.50 330Q159 318 160 306Q160 300 164 300Q166 300 169 303Q188 319 209.50 341.50Q231 364 245 381Q254 393 258 393Q259 393 261 391Q263 385 263 386M207 229Q202 218 196 210Q192 205 189.50 207Q187 209 188 214Q189 227 175 230Q162 232 150.50 226.50Q139 221 135 204Q130 184 128 161Q126 138 124 117Q120 74 113 39.50Q106 5 86-27Q69-54 43-77.50Q17-101-12-115Q-41-130-74-136.50Q-107-143-127-137Q-140-133-148.50-114Q-157-95-161-78Q-162-73-159-72Q-156-71-154-76Q-147-97-130-107.50Q-113-118-90.50-120Q-68-122-44-116Q-20-110 0-98Q21-86 35-66.50Q49-47 59-23.50Q69 0 74.50 25.50Q80 51 83 75Q85 95 88 117.50Q91 140 93 155Q96 174 102 184.50Q108 195 116 206Q127 220 140.50 232Q154 244 166 250Q174 254 183 255.50Q192 257 199 251Q212 240 207 229Z"  horiz-adv-x="172" vert-adv-y="1000"  />

      
      <glyph glyph-name="uni203A" unicode="&#x203A;" d="M267 114Q267 108 263 105Q229 79 189.50 44.50Q150 10 120-22Q118-24 113.50-27Q109-30 104-30Q100-30 99-29Q96-28 96-25Q96-22 102-17Q131 5 165.50 34Q200 63 229 90Q236 96 236 101Q236 106 232 110Q217 131 201.50 159Q186 187 169 213Q167 219 167 219Q167 221 172 223Q179 225 183.50 226.50Q188 228 193 228Q200 228 204 221Q216 201 232.50 171Q249 141 265 120Q267 114 267 114Z"  horiz-adv-x="275" vert-adv-y="1000"  />

      
      <glyph glyph-name="uni0153" unicode="&#x0153;" d="M426 97Q426 95 424 93Q389 60 342 32Q295 4 251-8Q224-15 202-15Q180-15 163.50-6Q147 3 147 28Q147 30 147.50 32.50Q148 35 148 37Q146 35 144.50 34Q143 33 141 31Q101-6 69-6Q37-6 36 25Q35 39 39.50 52.50Q44 66 51 79Q70 115 94.50 139.50Q119 164 145 184Q158 195 175 203Q175 206 178 208Q183 210 187 214Q191 218 194 220Q200 222 200 222Q205 222 207 216Q209 202 211.50 192.50Q214 183 214 172L214 164Q214 158 213 155Q212 154 212 151Q212 148 211 147Q249 185 287 202Q298 207 311.50 211.50Q325 216 338 216Q360 216 360 198Q360 195 359.50 192Q359 189 358 185Q354 170 337.50 155.50Q321 141 298 127.50Q275 114 249 102.50Q223 91 199 82L190 58Q186 49 186 37Q187 17 201 9.50Q215 2 232 2Q251 2 264 6Q282 11 303 20Q324 29 345 41Q366 53 385.50 68Q405 83 420 99Q422 101 423 101Q426 101 426 97M322 181Q322 199 307 199Q297 199 286 191Q260 173 239 147Q218 121 204 92Q222 98 241 106Q260 114 276 124Q296 136 308 148.50Q320 161 322 177L322 181M180 167Q180 188 171 188Q167 188 157 181Q119 153 96.50 113.50Q74 74 74 32Q74 7 89 7Q97 7 111 16Q146 41 161.50 80Q177 119 180 158L180 167Z"  horiz-adv-x="346" vert-adv-y="1000"  />

      
      <glyph glyph-name="uni9e" unicode="&#x9e;" d="M353 386Q353 380 345 374Q326 358 306.50 339.50Q287 321 270 304Q262 296 253.50 288.50Q245 281 238 276Q237 275 234 275Q229 275 229 280Q228 308 225.50 332.50Q223 357 222 376L222 379Q222 386 227 391Q231 394 234 396Q237 398 239 400Q242 403 245 403Q248 403 248 396L248 353Q248 342 248.50 330Q249 318 250 306Q250 300 254 300Q256 300 259 303Q278 319 299.50 341.50Q321 364 335 381Q344 393 348 393Q349 393 351 391Q353 385 353 386M560-104Q560-107 557-110Q529-133 501.50-142Q474-151 445-151Q412-151 366-140Q334-132 296-114.50Q258-97 224-74Q195-54 165.50-35Q136-16 106 2Q83-12 60-18Q37-24 17-24Q-25-24-50-2Q-57 3-59.50 9.50Q-62 16-62 22Q-62 37-45 48Q-23 60 5 60Q20 60 35 57Q84 47 126 25Q133 30 139.50 35.50Q146 41 152 46Q175 68 195 89Q215 110 241 139Q224 147 201 151Q178 155 157 155Q153 155 149.50 154.50Q146 154 142 154Q130 153 119.50 148Q109 143 104 137Q101 134 99 134Q97 134 97 137Q97 139 99 141Q106 148 113 159.50Q120 171 125 183Q128 191 134.50 193Q141 195 150 195Q154 195 157.50 194.50Q161 194 166 194Q190 192 215.50 185Q241 178 266 167Q277 179 286 189Q295 199 305 210Q307 212 308 212Q312 212 312 208Q312 205 310 203Q301 193 291.50 182.50Q282 172 272 161Q259 146 244 129.50Q229 113 214 96.50Q199 80 184.50 65.50Q170 51 158 40Q152 35 146.50 30.50Q141 26 135 21Q159 9 181.50-5Q204-19 227-33Q269-59 308-83Q347-107 384-125Q401-133 419-138Q437-143 455-143Q509-143 552-103L556-101Q560-101 560-104M97 7Q91 11 84 15Q77 19 69 23Q47 35 28 42.50Q9 50-10 50L-14 50Q-36 50-36 34Q-36 27-26 16Q-1-11 37-11Q55-11 77-3Q87 1 97 7Z"  horiz-adv-x="274" vert-adv-y="1000"  />

      
      <glyph glyph-name="uni017E" unicode="&#x017E;" d="M353 386Q353 380 345 374Q326 358 306.50 339.50Q287 321 270 304Q262 296 253.50 288.50Q245 281 238 276Q237 275 234 275Q229 275 229 280Q228 308 225.50 332.50Q223 357 222 376L222 379Q222 386 227 391Q231 394 234 396Q237 398 239 400Q242 403 245 403Q248 403 248 396L248 353Q248 342 248.50 330Q249 318 250 306Q250 300 254 300Q256 300 259 303Q278 319 299.50 341.50Q321 364 335 381Q344 393 348 393Q349 393 351 391Q353 385 353 386M560-104Q560-107 557-110Q529-133 501.50-142Q474-151 445-151Q412-151 366-140Q334-132 296-114.50Q258-97 224-74Q195-54 165.50-35Q136-16 106 2Q83-12 60-18Q37-24 17-24Q-25-24-50-2Q-57 3-59.50 9.50Q-62 16-62 22Q-62 37-45 48Q-23 60 5 60Q20 60 35 57Q84 47 126 25Q133 30 139.50 35.50Q146 41 152 46Q175 68 195 89Q215 110 241 139Q224 147 201 151Q178 155 157 155Q153 155 149.50 154.50Q146 154 142 154Q130 153 119.50 148Q109 143 104 137Q101 134 99 134Q97 134 97 137Q97 139 99 141Q106 148 113 159.50Q120 171 125 183Q128 191 134.50 193Q141 195 150 195Q154 195 157.50 194.50Q161 194 166 194Q190 192 215.50 185Q241 178 266 167Q277 179 286 189Q295 199 305 210Q307 212 308 212Q312 212 312 208Q312 205 310 203Q301 193 291.50 182.50Q282 172 272 161Q259 146 244 129.50Q229 113 214 96.50Q199 80 184.50 65.50Q170 51 158 40Q152 35 146.50 30.50Q141 26 135 21Q159 9 181.50-5Q204-19 227-33Q269-59 308-83Q347-107 384-125Q401-133 419-138Q437-143 455-143Q509-143 552-103L556-101Q560-101 560-104M97 7Q91 11 84 15Q77 19 69 23Q47 35 28 42.50Q9 50-10 50L-14 50Q-36 50-36 34Q-36 27-26 16Q-1-11 37-11Q55-11 77-3Q87 1 97 7Z"  horiz-adv-x="274" vert-adv-y="1000"  />

      
      <glyph glyph-name="uni0178" unicode="&#x0178;" d="M640 632Q640 620 629.50 608Q619 596 606 596Q594 596 594 608Q594 621 603.50 632.50Q613 644 627 644Q640 644 640 632M538 636Q538 624 527.50 612Q517 600 504 600Q492 600 492 612Q492 625 501.50 636.50Q511 648 525 648Q538 648 538 636M831 547Q831 536 822 518Q809 495 788.50 466.50Q768 438 743 406Q718 374 686.50 337.50Q655 301 627 272Q594 237 555 203.50Q516 170 476 144Q453 109 432.50 74Q412 39 398 13Q376-27 366.50-57.50Q357-88 357-120Q357-124 357.50-128Q358-132 358-136Q361-188 397.50-218Q434-248 486-248L494-248Q539-246 580-233.50Q621-221 647-213Q667-207 685-202.50Q703-198 720-198Q724-198 728-198.50Q732-199 737-200Q757-205 757-222Q757-232 752-240Q744-254 732.50-265.50Q721-277 711-285Q699-294 693-300Q687-306 681-309Q680-310 675-310Q670-310 667-305Q667-304 666.50-304Q666-304 666-303Q666-300 675-298Q684-297 701-281Q718-266 718-253Q718-238 691-232Q686-231 681-230.50Q676-230 670-230Q633-230 571-247Q542-255 509-260.50Q476-266 441-266Q430-266 418.50-265.50Q407-265 396-263Q357-255 336.50-228Q316-201 316-162Q316-128 329-95Q338-72 351-46Q364-20 378 5Q392 30 405.50 51.50Q419 73 429 88Q436 99 442.50 110Q449 121 456 132Q406 102 375 102Q325 102 325 184L325 195Q325 203 326 207Q328 225 328.50 246.50Q329 268 329 291Q329 323 327.50 353.50Q326 384 321 409Q307 487 255 487Q223 487 186 459Q160 440 134.50 416.50Q109 393 91 374Q88 371 85 371Q82 371 82 374Q82 377 84 379Q101 399 126 421Q151 443 171 460Q189 474 211 488Q233 502 259 512Q283 521 302 521Q335 521 351 496Q367 471 367 423L367 406Q365 367 362.50 321.50Q360 276 360 234Q360 128 409 128Q432 128 467 150Q494 193 518.50 229Q543 265 566 297Q582 320 600.50 345Q619 370 638 393.50Q657 417 674.50 437.50Q692 458 706 473Q727 496 748.50 516.50Q770 537 789 551Q804 563 816 563Q831 563 831 547M779 512Q779 522 774 522Q772 522 768 519Q748 502 730 484Q712 466 689 438Q654 396 612 340.50Q570 285 531 228Q521 214 510 197Q499 180 488 163Q493 167 498 170.50Q503 174 508 178Q577 232 640.50 302Q704 372 759 465Q766 476 772.50 490Q779 504 779 512Z"  horiz-adv-x="635" vert-adv-y="1000"  />

      
      <glyph glyph-name="unia1" unicode="&#xa1;" d="M235 223Q235 211 230.50 199.50Q226 188 214 184Q212 183 205 183Q194 183 189 191Q184 199 184 207Q184 222 194 232Q203 241 216 241Q235 241 235 223M195 137Q195 137 194 136Q133-39 80-141Q64-172 32-172Q28-172 24.50-171.50Q21-171 16-170Q9-168 4-167.50Q-1-167-5-165Q-7-163-7-161Q-7-157-4-157L-3-157L-1-157Q9-157 20-149Q42-131 63.50-100Q85-69 106-30.50Q127 8 147 51Q167 94 186 138Q187 141 190 141Q195 141 195 137Z"  horiz-adv-x="220" vert-adv-y="1000"  />

      
      <glyph glyph-name="unia2" unicode="&#xa2;" d="M413 459Q413 458 412.50 457Q412 456 412 455Q407 437 392 419Q379 404 366.50 387Q354 370 340 351Q345 349 349 347.50Q353 346 358 344Q379 330 382 311Q383 302 376 299Q370 297 365 291Q360 285 357 280Q354 276 352 276Q350 276 349 283Q345 299 327 314Q325 316 323 317Q321 318 318 320Q276 260 234.50 191.50Q193 123 156 56Q171 54 186 58Q201 62 215 68Q257 87 289.50 114.50Q322 142 351 171Q354 174 356 174Q358 174 358 171Q358 172 356 166Q333 133 296 107Q259 81 213 59Q183 44 146 37Q130 7 115.50-21Q101-49 89-75Q79-95 69-123Q59-151 55-169Q55-171 54.50-172Q54-173 54-175Q54-179 56-187Q56-192 54-192Q51-192 50-189Q45-183 40-171Q39-170 39-163Q39-157 40-155Q45-143 51-128.50Q57-114 65-97Q82-65 99-32Q116 1 135 35L123 35Q104 35 92 39Q78 43 71.50 55Q65 67 65 82Q65 102 74.50 127Q84 152 98 176.50Q112 201 127.50 223Q143 245 156 260Q187 296 230 324Q244 333 262.50 340.50Q281 348 298 351Q303 352 309 352.50Q315 353 320 353L329 353Q337 365 344.50 376.50Q352 388 360 399Q370 413 377 422.50Q384 432 389 440Q393 445 397 450.50Q401 456 406 460L410 462Q413 462 413 459M309 324Q292 329 280 329Q256 329 234 316Q205 297 188.50 277Q172 257 158 234Q150 222 141.50 205.50Q133 189 126.50 171Q120 153 115.50 135Q111 117 111 102Q111 82 119 71.50Q127 61 147 57Q185 126 226 193.50Q267 261 309 324Z"  horiz-adv-x="340" vert-adv-y="1000"  />

      
      <glyph glyph-name="unia3" unicode="&#xa3;" d="M124 88Q137 91 158 88Q191 87 224 74Q247 65 267.50 50Q288 35 308 21Q349-7 381-7Q416-7 450 27Q464 41 469 54Q470 58 473 58Q476 58 476 55L476 52Q473 45 466.50 36.50Q460 28 455 22Q432 1 409-18.50Q386-38 356-40Q345-40 327-35Q306-28 286.50-13Q267 2 250 17Q242 24 232 33Q222 42 212 50Q201 58 189.50 65Q178 72 165 74Q149 78 133 78Q114 78 98 67Q90 61 79 52Q68 43 59 32Q49 19 39.50 6.50Q30-6 18-17Q15-20 12-20Q9-20 6-17Q2-13 2-7Q2 2 8 8Q18 19 30 29Q42 39 52 47Q61 54 72.50 61.50Q84 69 94 76Q104 83 124 88Z"  horiz-adv-x="461" vert-adv-y="1000"  />

      
      <glyph glyph-name="unia4" unicode="&#xa4;" d="M435 233Q435 260 425 285Q415 310 397 329Q379 348 354.50 359.50Q330 371 302 371Q273 371 248.50 359.50Q224 348 206 329Q188 310 178 285Q168 260 168 233Q168 206 178 181Q188 156 206 137Q224 118 248.50 106.50Q273 95 302 95Q330 95 354.50 106.50Q379 118 397 137Q415 156 425 181Q435 206 435 233M440 397L465 372L429 335Q465 293 465 233Q465 173 429 131L465 94L440 69L404 106Q383 89 357 79Q331 69 302 69Q273 69 246.50 79Q220 89 199 106L163 69L138 94L174 131Q138 173 138 233Q138 293 174 335L138 372L163 397L199 360Q220 377 246.50 387Q273 397 302 397Q331 397 357 387Q383 377 404 360L440 397Z"  horiz-adv-x="389" vert-adv-y="1000"  />

      
      <glyph glyph-name="unia5" unicode="&#xa5;" d="M605 443Q605 438 598 434Q572 414 542.50 397Q513 380 486 360Q444 330 402.50 294Q361 258 323 220Q320 217 320 215Q320 213 324 213Q345 213 366.50 214.50Q388 216 403 216Q409 216 409 212Q409 205 399 205L355 205Q344 205 334 205Q324 205 314 204Q306 204 302 194Q300 189 295 179.50Q290 170 288 165Q288 164 287.50 163Q287 162 287 161Q287 159 292 159L293 159Q316 159 337.50 160.50Q359 162 376 162Q382 162 382 158Q382 151 374 151L333 151Q323 151 312.50 150.50Q302 150 289 149Q281 149 278 142Q266 119 251 86.50Q236 54 224 30Q221 25 221 21Q221 14 235 12Q239 12 242.50 11.50Q246 11 251 11Q260 11 268.50 12Q277 13 285 13L286 13Q293 13 293 6Q293 1 287 1L286 1Q275 2 264.50 2.50Q254 3 243 3L224 3Q219 3 215 3Q211 3 206 2Q187 0 167-2.50Q147-5 129-7Q126-7 123.50-7.50Q121-8 119-8Q111-8 108-5Q105-2 105 0Q105 6 116 6Q122 6 128.50 5.50Q135 5 142 5L148 5Q153 5 155 6Q164 8 171.50 15Q179 22 185 31Q199 52 215 82Q231 112 242 136L244 142Q244 146 237 146L236 146Q217 146 194.50 143.50Q172 141 149 138L146 138Q140 138 140 141Q140 144 143 146Q149 151 162 152Q179 153 200 153.50Q221 154 244 156Q251 156 256 165Q258 170 262 179Q266 188 268 196L268 198Q268 201 263 201L262 201Q245 201 223.50 198.50Q202 196 185 194L181 194Q175 194 175 198Q175 201 176 202Q180 209 192 209L207 209L236 209Q244 209 251 209.50Q258 210 265 211Q276 213 277 222Q287 251 287 283Q287 310 278 334Q267 364 242.50 379Q218 394 189 394Q167 394 140 383Q122 375 109 360.50Q96 346 90 335Q89 331 85 331Q82 331 82 335Q82 338 83 339Q91 350 107 367Q123 384 138 393Q155 404 177.50 410.50Q200 417 230 417Q272 417 298.50 389.50Q325 362 325 323Q325 293 319.50 270Q314 247 306 224Q306 223 305.50 222.50Q305 222 305 221Q305 218 307 218Q309 218 314 223Q362 274 411 318Q460 362 512 402Q530 416 548 429Q566 442 578 453Q582 457 586 457Q585 457 591 455Q593 453 596 451.50Q599 450 601 448Q605 444 605 443Z"  horiz-adv-x="410" vert-adv-y="1000"  />

      
      <glyph glyph-name="unia6" unicode="&#xa6;" d="M208 175L238 175L238-175L208-175L208 175M208 675L238 675L238 325L208 325L208 675Z"  horiz-adv-x="222" vert-adv-y="1000"  />

      
      <glyph glyph-name="unia7" unicode="&#xa7;" d="M343 377Q343 371 340 364Q337 358 333 351.50Q329 345 327 340Q326 336 323 336Q319 336 319 341L319 342Q320 343 320 349Q320 359 307 369Q290 380 271 380Q234 380 211 351Q194 329 194 306Q194 289 203 268Q213 246 229 224.50Q245 203 255 181Q267 157 267 132Q267 110 256 86Q250 74 241.50 63.50Q233 53 225 45Q225 32 221.50 18Q218 4 213-7Q203-28 186-45Q169-62 148-74Q127-86 103.50-92Q80-98 57-98L54-98Q14-98-10-73.50Q-34-49-36-11L-36-3Q-36 14-33.50 28.50Q-31 43-27 51Q-26 55-23 55Q-21 55-21 51L-21 49Q-26 31-26 16Q-26 6-23-3Q-15-28 6-46.50Q27-65 59-70Q75-73 90-73Q128-73 155.50-57.50Q183-42 196-13Q202 0 202 16Q202 20 201.50 24Q201 28 200 33Q195 52 184 68Q173 84 160 99Q147 114 134 129.50Q121 145 113 162Q106 175 106 192Q106 211 115 228Q134 266 174 286Q175 306 185 327Q198 353 217 370.50Q236 388 265 397Q283 403 298 403Q313 403 327 397Q343 391 343 377M251 113Q251 138 239 159Q232 173 218 190Q212 198 206.50 205Q201 212 195 221Q179 246 174 276Q164 272 157.50 266Q151 260 144 252Q135 240 135 226Q135 212 139 204Q149 173 168.50 150.50Q188 128 203 105Q220 79 224 55Q251 79 251 113Z"  horiz-adv-x="301" vert-adv-y="1000"  />

      
      <glyph glyph-name="unia8" unicode="&#xa8;" d="M175 328Q175 316 164.50 304Q154 292 141 292Q129 292 129 304Q129 317 138.50 329Q148 341 162 341Q175 341 175 328M103 334Q103 322 92.50 310Q82 298 69 298Q57 298 57 310Q57 323 66.50 335Q76 347 90 347Q103 347 103 334Z"  horiz-adv-x="230" vert-adv-y="1000"  />

      
      <glyph glyph-name="unia9" unicode="&#xa9;" d="M614 273Q614 212 589 158Q564 104 520.50 63Q477 22 419.50-2Q362-26 298-26Q256-26 222-13.50Q188-1 163.50 21.50Q139 44 125.50 76Q112 108 112 147Q112 208 137.50 263Q163 318 206 359.50Q249 401 305.50 425.50Q362 450 425 450Q516 450 565 404Q614 358 614 273M588 276Q588 357 542.50 399Q497 441 419 441Q360 441 309 417Q258 393 220 352.50Q182 312 160.50 259.50Q139 207 139 149Q139 114 152 84Q165 54 188.50 32Q212 10 243.50-2.50Q275-15 312-15Q374-15 425 8Q476 31 512 70.50Q548 110 568 163Q588 216 588 276M473 288Q467 353 409 353Q379 353 351 337Q323 321 301.50 294.50Q280 268 267.50 233Q255 198 255 161Q255 119 277 95Q299 71 337 71Q372 71 390.50 88Q409 105 429 129L435 102Q411 79 386.50 69Q362 59 331 59Q282 59 254.50 87.50Q227 116 227 167Q227 207 241.50 243.50Q256 280 280.50 307Q305 334 338 350Q371 366 408 366Q453 366 474 351.50Q495 337 500 302L473 288Z"  horiz-adv-x="567" vert-adv-y="1000"  />

      
      <glyph glyph-name="uniaa" unicode="&#xaa;" d="M344 218Q344 216 343 215Q331 202 313 188Q295 174 277 165Q258 155 244.50 151Q231 147 220 147Q193 147 193 180Q193 191 195.50 205.50Q198 220 204 238Q209 255 216.50 272Q224 289 233 308Q207 273 179.50 241.50Q152 210 123 193Q115 188 107.50 186Q100 184 95 184Q78 184 78 202Q78 214 87 232Q107 268 137 298.50Q167 329 196 349Q211 360 228 368Q245 376 262 376Q268 388 276.50 403Q285 418 293 429Q297 433 300 433Q305 433 305 427Q305 420 310 412Q312 406 312 407Q312 408 310 402Q251 313 233 223Q231 215 231 212L231 203Q231 172 255 172Q265 172 284 180Q297 186 312.50 197.50Q328 209 337 219Q339 221 341 221Q344 221 344 218M257 366Q226 366 194 336Q186 330 176 318.50Q166 307 156.50 293.50Q147 280 139 266Q131 252 127 239Q124 228 124 223Q124 213 131 213Q135 213 149 224Q177 250 205.50 285.50Q234 321 257 366Z"  horiz-adv-x="269" vert-adv-y="1000"  />

      
      <glyph glyph-name="uniab" unicode="&#xab;" d="M337 219Q337 214 334 213Q303 189 278.50 168.50Q254 148 225 125Q219 120 219 115Q219 110 220 109Q227 87 239.50 54Q252 21 262-1Q263-2 263-5Q263-8 258-10Q253-12 248-14Q243-16 238-18Q237-19 235-19Q232-19 230.50-16Q229-13 228-10Q228-9 224.50 0.50Q221 10 216 23.50Q211 37 205.50 51.50Q200 66 196 77Q191 93 190 95Q189 97 189 101Q189 106 194 111Q212 125 230.50 140Q249 155 268 172Q282 185 299 199.50Q316 214 328 223Q329 224 332 224Q337 224 337 219M277 228Q275 222 271 221Q269 219 266 217.50Q263 216 261 214Q249 205 234 193.50Q219 182 202.50 169.50Q186 157 170 144.50Q154 132 140 121Q131 113 131 107Q131 107 133 97Q139 77 149 45.50Q159 14 170-10L172-16Q172-17 171-18Q170-19 165-19Q161-20 155.50-21Q150-22 146-24Q145-25 142-25Q137-25 135-17Q129 5 120.50 35.50Q112 66 102 96L102 98Q102 103 109 107Q117 112 127 120.50Q137 129 147 137Q177 161 209.50 187.50Q242 214 270 234Q271 235 273 235Q277 235 277 230L277 228L277 228Z"  horiz-adv-x="311" vert-adv-y="1000"  />

      
      <glyph glyph-name="uniac" unicode="&#xac;" d="M15 288L680 288L680 0L625 0L625 233L15 233L15 288Z"  horiz-adv-x="713" vert-adv-y="1000"  />

      
      <glyph glyph-name="uniae" unicode="&#xae;" d="M484 347Q484 311 468.50 278.50Q453 246 426 222Q399 198 363 184Q327 170 287 170Q232 170 199.50 197.50Q167 225 167 273Q167 309 182.50 342Q198 375 225 399.50Q252 424 287.50 438.50Q323 453 363 453Q421 453 452.50 425.50Q484 398 484 347M468 339Q468 446 361 446Q325 446 293 432Q261 418 236.50 394.50Q212 371 198 339.50Q184 308 184 273Q184 231 215 204Q246 177 294 177Q330 177 361.50 189.50Q393 202 417 224Q441 246 454.50 275.50Q468 305 468 339M401 375Q401 352 381.50 337Q362 322 326 317Q342 297 356 275.50Q370 254 384 234Q374 234 364 229Q354 252 336.50 278Q319 304 305 321L306 323L315 323Q343 323 362.50 339Q382 355 382 378Q382 401 349 401L341 401Q330 381 320 362Q310 343 300 323Q289 300 279 277Q269 254 258 231Q246 231 236 228Q249 252 261.50 276Q274 300 286 325Q297 345 306 365.50Q315 386 325 407Q331 407 337.50 407.50Q344 408 350 408Q378 408 389.50 400.50Q401 393 401 375Z"  horiz-adv-x="410" vert-adv-y="1000"  />

      
      <glyph glyph-name="uniaf" unicode="&#xaf;" d="M166 320L78 318L83 333L169 335L166 320Z"  horiz-adv-x="230" vert-adv-y="1000"  />

      
      <glyph glyph-name="uni02C9" unicode="&#x02C9;" d="M166 320L78 318L83 333L169 335L166 320Z"  horiz-adv-x="230" vert-adv-y="1000"  />

      
      <glyph glyph-name="unib0" unicode="&#xb0;" d="M309 355Q309 330 290 311.50Q271 293 246 293Q221 293 204 309.50Q187 326 187 351Q187 376 206 394.50Q225 413 250 413Q275 413 292 396.50Q309 380 309 355M296 355Q296 375 283 388Q270 401 250 401Q230 401 215 386Q200 371 200 351Q200 331 213 318Q226 305 246 305Q266 305 281 320Q296 335 296 355Z"  horiz-adv-x="228" vert-adv-y="1000"  />

      
      <glyph glyph-name="unib1" unicode="&#xb1;" d="M237 278L267 278L267 178L391 178L391 148L267 148L267 48L237 48L237 148L113 148L113 178L237 178L237 278M113 30L391 30L391 0L113 0L113 30Z"  horiz-adv-x="400" vert-adv-y="1000"  />

      
      <glyph glyph-name="unib2" unicode="&#xb2;" d="M368 249Q368 248 366 246Q356 237 344.50 230Q333 223 318 219Q306 215 287 215Q276 215 264 218Q246 222 225 228.50Q204 235 187 242Q186 243 181 243Q180 243 174 241Q168 238 161.50 233.50Q155 229 150 225L146 223Q143 223 143 226Q143 228 147 231Q160 239 173 247Q186 255 201 265Q215 274 232 286.50Q249 299 262 310Q285 330 291 351Q292 353 292 359Q292 374 278 383Q274 387 262 387Q258 387 255 386.50Q252 386 248 385Q235 382 226 373Q224 371 222 371Q219 371 219 375Q219 377 222 379L236 386Q240 388 244 390Q248 392 253 394Q268 401 284 401Q293 401 302 398Q326 390 326 369Q326 362 323 356Q316 340 298 327Q278 311 254.50 294Q231 277 213 266L212 265Q212 264 214 262Q233 253 258.50 245Q284 237 306 233Q311 232 315 231.50Q319 231 323 231Q346 231 361 251Q363 253 364 253Q368 253 368 249Z"  horiz-adv-x="321" vert-adv-y="1000"  />

      
      </font>
</defs>
</svg>
